<?xml version="1.0" encoding="UTF-8" standalone="no"?><svg xmlns="http://www.w3.org/2000/svg" xmlns:xlink="http://www.w3.org/1999/xlink" contentScriptType="application/ecmascript" contentStyleType="text/css" height="515px" preserveAspectRatio="none" style="width:291px;height:515px;background:#FFFFFF;" version="1.1" viewBox="0 0 291 515" width="291px" zoomAndPan="magnify"><defs><filter height="300%" id="fb6gvolpcadp1" width="300%" x="-1" y="-1"><feGaussianBlur result="blurOut" stdDeviation="2.0"/><feColorMatrix in="blurOut" result="blurOut2" type="matrix" values="0 0 0 0 0 0 0 0 0 0 0 0 0 0 0 0 0 0 .4 0"/><feOffset dx="4.0" dy="4.0" in="blurOut2" result="blurOut3"/><feBlend in="SourceGraphic" in2="blurOut3" mode="normal"/></filter></defs><g><text fill="#000000" font-family="sans-serif" font-size="18" lengthAdjust="spacing" textLength="282" x="2" y="18.6855">Диаграмма классов "Расписание"</text><!--MD5=[1a56b3c058b31996c7cec1e8622782e5]
class DayWeek--><rect codeLine="4" fill="#FEFECE" filter="url(#fb6gvolpcadp1)" height="75.6719" id="DayWeek" style="stroke:#A80036;stroke-width:1.5;" width="84" x="36.5" y="425.6406"/><ellipse cx="51.5" cy="441.6406" fill="#EB937F" rx="11" ry="11" style="stroke:#A80036;stroke-width:1.0;"/><path d="M50.3594,442.4375 L50.3594,444.9375 L54.6875,444.9375 L54.6875,444.0156 Q54.6875,443.4063 54.9297,443.1406 Q55.1719,442.875 55.5469,442.875 Q55.9219,442.875 56.1563,443.1406 Q56.3906,443.4063 56.3906,444.0156 L56.3906,446.6406 L48.3906,446.6406 Q47.7656,446.6406 47.5078,446.4063 Q47.25,446.1719 47.25,445.7813 Q47.25,445.4063 47.5156,445.1719 Q47.7813,444.9375 48.3906,444.9375 L48.6563,444.9375 L48.6563,438.2813 L48.3906,438.2813 Q47.7656,438.2813 47.5078,438.0469 Q47.25,437.8125 47.25,437.4219 Q47.25,437.0469 47.5078,436.8125 Q47.7656,436.5781 48.3906,436.5781 L56.0156,436.5781 L56.0156,439.1719 Q56.0156,439.7813 55.7891,440.0391 Q55.5625,440.2969 55.1719,440.2969 Q54.7969,440.2969 54.5625,440.0391 Q54.3281,439.7813 54.3281,439.1719 L54.3281,438.2813 L50.3594,438.2813 L50.3594,440.7344 L51.8438,440.7344 Q51.8438,440.0781 51.9688,439.8906 Q52.2344,439.4844 52.7031,439.4844 Q53.0781,439.4844 53.3125,439.7422 Q53.5469,440 53.5469,440.6094 L53.5469,442.5781 Q53.5469,443.125 53.4219,443.3125 Q53.1563,443.7031 52.7031,443.7031 Q52.2344,443.7031 51.9688,443.2969 Q51.8438,443.1094 51.8438,442.4375 L50.3594,442.4375 Z " fill="#000000"/><text fill="#000000" font-family="sans-serif" font-size="12" lengthAdjust="spacing" textLength="52" x="65.5" y="446.5508">DayWeek</text><line style="stroke:#A80036;stroke-width:1.5;" x1="37.5" x2="119.5" y1="457.6406" y2="457.6406"/><text fill="#000000" font-family="sans-serif" font-size="11" lengthAdjust="spacing" textLength="47" x="42.5" y="473.0596">id: Integer</text><text fill="#000000" font-family="sans-serif" font-size="11" lengthAdjust="spacing" textLength="60" x="42.5" y="486.8955">name: String</text><line style="stroke:#A80036;stroke-width:1.5;" x1="37.5" x2="119.5" y1="493.3125" y2="493.3125"/><!--MD5=[948c0814a6ec018750289a189941a986]
class Week--><rect codeLine="10" fill="#FEFECE" filter="url(#fb6gvolpcadp1)" height="89.5078" id="Week" style="stroke:#A80036;stroke-width:1.5;" width="116" x="20.5" y="269.1406"/><ellipse cx="59.35" cy="285.1406" fill="#ADD1B2" rx="11" ry="11" style="stroke:#A80036;stroke-width:1.0;"/><path d="M62.1156,281.0156 Q62.2719,280.7969 62.4594,280.6875 Q62.6469,280.5781 62.8656,280.5781 Q63.2406,280.5781 63.475,280.8359 Q63.7094,281.0938 63.7094,281.7031 L63.7094,283.1563 Q63.7094,283.7656 63.475,284.0313 Q63.2406,284.2969 62.8656,284.2969 Q62.5219,284.2969 62.3188,284.0938 Q62.1156,283.9063 62.0063,283.3906 Q61.9594,283.0313 61.7719,282.8438 Q61.4438,282.4688 60.8344,282.25 Q60.225,282.0313 59.6,282.0313 Q58.8344,282.0313 58.2016,282.3594 Q57.5688,282.6875 57.0766,283.4375 Q56.5844,284.1875 56.5844,285.2188 L56.5844,286.3125 Q56.5844,287.5469 57.475,288.3672 Q58.3656,289.1875 59.9594,289.1875 Q60.8969,289.1875 61.5531,288.9375 Q61.9438,288.7813 62.3656,288.3438 Q62.6313,288.0781 62.7797,288 Q62.9281,287.9219 63.1313,287.9219 Q63.4594,287.9219 63.7172,288.1797 Q63.975,288.4375 63.975,288.7813 Q63.975,289.125 63.6313,289.5313 Q63.1313,290.1094 62.3344,290.4375 Q61.2563,290.8906 59.9594,290.8906 Q58.4438,290.8906 57.2406,290.2656 Q56.2563,289.7656 55.5688,288.6953 Q54.8813,287.625 54.8813,286.3438 L54.8813,285.1875 Q54.8813,283.8594 55.4984,282.7109 Q56.1156,281.5625 57.2094,280.9453 Q58.3031,280.3281 59.5375,280.3281 Q60.2719,280.3281 60.9203,280.4922 Q61.5688,280.6563 62.1156,281.0156 Z " fill="#000000"/><text fill="#000000" font-family="sans-serif" font-size="12" lengthAdjust="spacing" textLength="31" x="78.65" y="290.0508">Week</text><line style="stroke:#A80036;stroke-width:1.5;" x1="21.5" x2="135.5" y1="301.1406" y2="301.1406"/><text fill="#000000" font-family="sans-serif" font-size="11" lengthAdjust="spacing" textLength="47" x="26.5" y="316.5596">id: Integer</text><text fill="#000000" font-family="sans-serif" font-size="11" lengthAdjust="spacing" textLength="104" x="26.5" y="330.3955">day_week_id: Integer</text><text fill="#000000" font-family="sans-serif" font-size="11" lengthAdjust="spacing" textLength="83" x="26.5" y="344.2314">is_even: Boolean</text><line style="stroke:#A80036;stroke-width:1.5;" x1="21.5" x2="135.5" y1="350.6484" y2="350.6484"/><!--MD5=[b0c046f067568c65d22d7103fc9fd64d]
class LessonType--><rect codeLine="17" fill="#FEFECE" filter="url(#fb6gvolpcadp1)" height="103.3438" id="LessonType" style="stroke:#A80036;stroke-width:1.5;" width="100" x="171.5" y="262.6406"/><ellipse cx="186.5" cy="278.6406" fill="#ADD1B2" rx="11" ry="11" style="stroke:#A80036;stroke-width:1.0;"/><path d="M189.2656,274.5156 Q189.4219,274.2969 189.6094,274.1875 Q189.7969,274.0781 190.0156,274.0781 Q190.3906,274.0781 190.625,274.3359 Q190.8594,274.5938 190.8594,275.2031 L190.8594,276.6563 Q190.8594,277.2656 190.625,277.5313 Q190.3906,277.7969 190.0156,277.7969 Q189.6719,277.7969 189.4688,277.5938 Q189.2656,277.4063 189.1563,276.8906 Q189.1094,276.5313 188.9219,276.3438 Q188.5938,275.9688 187.9844,275.75 Q187.375,275.5313 186.75,275.5313 Q185.9844,275.5313 185.3516,275.8594 Q184.7188,276.1875 184.2266,276.9375 Q183.7344,277.6875 183.7344,278.7188 L183.7344,279.8125 Q183.7344,281.0469 184.625,281.8672 Q185.5156,282.6875 187.1094,282.6875 Q188.0469,282.6875 188.7031,282.4375 Q189.0938,282.2813 189.5156,281.8438 Q189.7813,281.5781 189.9297,281.5 Q190.0781,281.4219 190.2813,281.4219 Q190.6094,281.4219 190.8672,281.6797 Q191.125,281.9375 191.125,282.2813 Q191.125,282.625 190.7813,283.0313 Q190.2813,283.6094 189.4844,283.9375 Q188.4063,284.3906 187.1094,284.3906 Q185.5938,284.3906 184.3906,283.7656 Q183.4063,283.2656 182.7188,282.1953 Q182.0313,281.125 182.0313,279.8438 L182.0313,278.6875 Q182.0313,277.3594 182.6484,276.2109 Q183.2656,275.0625 184.3594,274.4453 Q185.4531,273.8281 186.6875,273.8281 Q187.4219,273.8281 188.0703,273.9922 Q188.7188,274.1563 189.2656,274.5156 Z " fill="#000000"/><text fill="#000000" font-family="sans-serif" font-size="12" lengthAdjust="spacing" textLength="68" x="200.5" y="283.5508">LessonType</text><line style="stroke:#A80036;stroke-width:1.5;" x1="172.5" x2="270.5" y1="294.6406" y2="294.6406"/><text fill="#000000" font-family="sans-serif" font-size="11" lengthAdjust="spacing" textLength="47" x="177.5" y="310.0596">id: Integer</text><text fill="#000000" font-family="sans-serif" font-size="11" lengthAdjust="spacing" textLength="65" x="177.5" y="323.8955">order: Integer</text><text fill="#000000" font-family="sans-serif" font-size="11" lengthAdjust="spacing" textLength="75" x="177.5" y="337.7314">start_time: Time</text><text fill="#000000" font-family="sans-serif" font-size="11" lengthAdjust="spacing" textLength="71" x="177.5" y="351.5674">end_time: Time</text><line style="stroke:#A80036;stroke-width:1.5;" x1="172.5" x2="270.5" y1="357.9844" y2="357.9844"/><!--MD5=[43eb79777787e83dcab1adc8d2b5c2d3]
class Lesson--><rect codeLine="25" fill="#FEFECE" filter="url(#fb6gvolpcadp1)" height="172.5234" id="Lesson" style="stroke:#A80036;stroke-width:1.5;" width="150" x="74.5" y="29.6406"/><ellipse cx="124.25" cy="45.6406" fill="#ADD1B2" rx="11" ry="11" style="stroke:#A80036;stroke-width:1.0;"/><path d="M127.0156,41.5156 Q127.1719,41.2969 127.3594,41.1875 Q127.5469,41.0781 127.7656,41.0781 Q128.1406,41.0781 128.375,41.3359 Q128.6094,41.5938 128.6094,42.2031 L128.6094,43.6563 Q128.6094,44.2656 128.375,44.5313 Q128.1406,44.7969 127.7656,44.7969 Q127.4219,44.7969 127.2188,44.5938 Q127.0156,44.4063 126.9063,43.8906 Q126.8594,43.5313 126.6719,43.3438 Q126.3438,42.9688 125.7344,42.75 Q125.125,42.5313 124.5,42.5313 Q123.7344,42.5313 123.1016,42.8594 Q122.4688,43.1875 121.9766,43.9375 Q121.4844,44.6875 121.4844,45.7188 L121.4844,46.8125 Q121.4844,48.0469 122.375,48.8672 Q123.2656,49.6875 124.8594,49.6875 Q125.7969,49.6875 126.4531,49.4375 Q126.8438,49.2813 127.2656,48.8438 Q127.5313,48.5781 127.6797,48.5 Q127.8281,48.4219 128.0313,48.4219 Q128.3594,48.4219 128.6172,48.6797 Q128.875,48.9375 128.875,49.2813 Q128.875,49.625 128.5313,50.0313 Q128.0313,50.6094 127.2344,50.9375 Q126.1563,51.3906 124.8594,51.3906 Q123.3438,51.3906 122.1406,50.7656 Q121.1563,50.2656 120.4688,49.1953 Q119.7813,48.125 119.7813,46.8438 L119.7813,45.6875 Q119.7813,44.3594 120.3984,43.2109 Q121.0156,42.0625 122.1094,41.4453 Q123.2031,40.8281 124.4375,40.8281 Q125.1719,40.8281 125.8203,40.9922 Q126.4688,41.1563 127.0156,41.5156 Z " fill="#000000"/><text fill="#000000" font-family="sans-serif" font-size="12" lengthAdjust="spacing" textLength="42" x="144.75" y="50.5508">Lesson</text><line style="stroke:#A80036;stroke-width:1.5;" x1="75.5" x2="223.5" y1="61.6406" y2="61.6406"/><text fill="#000000" font-family="sans-serif" font-size="11" lengthAdjust="spacing" textLength="47" x="80.5" y="77.0596">id: Integer</text><text fill="#000000" font-family="sans-serif" font-size="11" lengthAdjust="spacing" textLength="65" x="80.5" y="90.8955">order: Integer</text><text fill="#000000" font-family="sans-serif" font-size="11" lengthAdjust="spacing" textLength="112" x="80.5" y="104.7314">lesson_type_id: Integer</text><text fill="#000000" font-family="sans-serif" font-size="11" lengthAdjust="spacing" textLength="80" x="80.5" y="118.5674">week_id: Integer</text><text fill="#000000" font-family="sans-serif" font-size="11" lengthAdjust="spacing" textLength="101" x="80.5" y="132.4033">audience_id: Interger</text><text fill="#000000" font-family="sans-serif" font-size="11" lengthAdjust="spacing" textLength="94" x="80.5" y="146.2393">teacher_id: Interger</text><text fill="#000000" font-family="sans-serif" font-size="11" lengthAdjust="spacing" textLength="138" x="80.5" y="160.0752">education_lesson_id: Integer</text><text fill="#000000" font-family="sans-serif" font-size="11" lengthAdjust="spacing" textLength="134" x="80.5" y="173.9111">education_group_id: Integer</text><text fill="#000000" font-family="sans-serif" font-size="11" lengthAdjust="spacing" textLength="49" x="80.5" y="187.7471">date: Date</text><line style="stroke:#A80036;stroke-width:1.5;" x1="75.5" x2="223.5" y1="194.1641" y2="194.1641"/><!--MD5=[4870be6589c29aff45208f7b5b4da2df]
reverse link Lesson to LessonType--><path codeLine="38" d="M185.56,215.3106 C191.58,231.6806 197.59,248.0406 202.92,262.5706 " fill="none" id="Lesson-backto-LessonType" style="stroke:#A80036;stroke-width:1.0;"/><polygon fill="#A80036" points="180.98,202.8206,179.2891,209.8307,185.1095,214.0877,186.8004,207.0777,180.98,202.8206" style="stroke:#A80036;stroke-width:1.0;"/><!--MD5=[ba326cfc4d82732bdeca332feef510d3]
reverse link Lesson to Week--><path codeLine="39" d="M113.97,215.2106 C107.13,234.1006 100.29,252.9906 94.47,269.0706 " fill="none" id="Lesson-backto-Week" style="stroke:#A80036;stroke-width:1.0;"/><polygon fill="#A80036" points="118.46,202.8206,112.6544,207.0979,114.3697,214.102,120.1753,209.8247,118.46,202.8206" style="stroke:#A80036;stroke-width:1.0;"/><!--MD5=[8d1f658fc1cce5bbfb9351c13b57d9ed]
reverse link Week to DayWeek--><path codeLine="40" d="M78.5,372.6206 C78.5,390.3506 78.5,409.4006 78.5,425.3806 " fill="none" id="Week-backto-DayWeek" style="stroke:#A80036;stroke-width:1.0;"/><polygon fill="#A80036" points="78.5,359.3906,74.5,365.3906,78.5,371.3906,82.5,365.3906,78.5,359.3906" style="stroke:#A80036;stroke-width:1.0;"/><!--MD5=[f5770b44be54386eecd541679768d72c]
@startuml timetable

title "Диаграмма классов "Расписание""

enum DayWeek {
    ' День Недели
    id: Integer
    name: String
}

class Week {
    ' Неделя
    id: Integer
    day_week_id: Integer
    is_even: Boolean
}

class LessonType {
    ' Тип занятия
    id: Integer
    order: Integer
    start_time: Time
    end_time: Time
}

class Lesson {
    ' Занятие
    id: Integer
    order: Integer
    lesson_type_id: Integer
    week_id: Integer
    audience_id: Interger
    teacher_id: Interger
    education_lesson_id: Integer
    education_group_id: Integer
    date: Date
}

Lesson *- - LessonType
Lesson *- - Week
Week *- - DayWeek

@enduml

@startuml timetable

title "Диаграмма классов "Расписание""

enum DayWeek {
    id: Integer
    name: String
}

class Week {
    id: Integer
    day_week_id: Integer
    is_even: Boolean
}

class LessonType {
    id: Integer
    order: Integer
    start_time: Time
    end_time: Time
}

class Lesson {
    id: Integer
    order: Integer
    lesson_type_id: Integer
    week_id: Integer
    audience_id: Interger
    teacher_id: Interger
    education_lesson_id: Integer
    education_group_id: Integer
    date: Date
}

Lesson *- - LessonType
Lesson *- - Week
Week *- - DayWeek

@enduml

PlantUML version 1.2021.16(Wed Dec 08 20:25:22 MSK 2021)
(GPL source distribution)
Java Runtime: Java(TM) SE Runtime Environment
JVM: Java HotSpot(TM) 64-Bit Server VM
Default Encoding: Cp1251
Language: ru
Country: RU
--></g></svg>