<?xml version="1.0" encoding="UTF-8" standalone="no"?><svg xmlns="http://www.w3.org/2000/svg" xmlns:xlink="http://www.w3.org/1999/xlink" contentScriptType="application/ecmascript" contentStyleType="text/css" height="1229px" preserveAspectRatio="none" style="width:1679px;height:1229px;background:#FFFFFF;" version="1.1" viewBox="0 0 1679 1229" width="1679px" zoomAndPan="magnify"><defs><filter height="300%" id="frjv0ummat2mf" width="300%" x="-1" y="-1"><feGaussianBlur result="blurOut" stdDeviation="2.0"/><feColorMatrix in="blurOut" result="blurOut2" type="matrix" values="0 0 0 0 0 0 0 0 0 0 0 0 0 0 0 0 0 0 .4 0"/><feOffset dx="4.0" dy="4.0" in="blurOut2" result="blurOut3"/><feBlend in="SourceGraphic" in2="blurOut3" mode="normal"/></filter></defs><g><text fill="#000000" font-family="sans-serif" font-size="18" lengthAdjust="spacing" textLength="272" x="697.055" y="18.6855">Диаграмма классов "Сайт ВУЗа"</text><!--MD5=[2a659f97ce422d3190c1f8b2ba1bbe16]
cluster university--><polygon fill="#FFFFFF" filter="url(#frjv0ummat2mf)" points="69.11,514.1406,328.11,514.1406,335.11,537.75,348.11,537.75,348.11,1073.1406,69.11,1073.1406,69.11,514.1406" style="stroke:#000000;stroke-width:1.5;"/><line style="stroke:#000000;stroke-width:1.5;" x1="69.11" x2="335.11" y1="537.75" y2="537.75"/><text fill="#000000" font-family="sans-serif" font-size="14" font-weight="bold" lengthAdjust="spacing" textLength="253" x="73.11" y="530.6738">university - Структура университета</text><!--MD5=[3063470ff00343f127a4682df62b6479]
cluster users--><polygon fill="#FFFFFF" filter="url(#frjv0ummat2mf)" points="883.11,219.6406,1045.11,219.6406,1052.11,243.25,1166.11,243.25,1166.11,649.1406,883.11,649.1406,883.11,219.6406" style="stroke:#000000;stroke-width:1.5;"/><line style="stroke:#000000;stroke-width:1.5;" x1="883.11" x2="1052.11" y1="243.25" y2="243.25"/><text fill="#000000" font-family="sans-serif" font-size="14" font-weight="bold" lengthAdjust="spacing" textLength="156" x="887.11" y="236.1738">users - Пользователи</text><!--MD5=[c403e451ed59278e681cdcad3d69631d]
cluster timetable--><polygon fill="#FFFFFF" filter="url(#frjv0ummat2mf)" points="529.11,698.6406,756.11,698.6406,763.11,722.25,812.11,722.25,812.11,1222.6406,529.11,1222.6406,529.11,698.6406" style="stroke:#000000;stroke-width:1.5;"/><line style="stroke:#000000;stroke-width:1.5;" x1="529.11" x2="763.11" y1="722.25" y2="722.25"/><text fill="#000000" font-family="sans-serif" font-size="14" font-weight="bold" lengthAdjust="spacing" textLength="221" x="533.11" y="715.1738">timetable - Расписание занятий</text><!--MD5=[3a99a4dbfc0dec0b14f698d556913447]
cluster content--><polygon fill="#FFFFFF" filter="url(#frjv0ummat2mf)" points="1190.11,28.6406,1361.11,28.6406,1368.11,52.25,1662.11,52.25,1662.11,882.1406,1190.11,882.1406,1190.11,28.6406" style="stroke:#000000;stroke-width:1.5;"/><line style="stroke:#000000;stroke-width:1.5;" x1="1190.11" x2="1368.11" y1="52.25" y2="52.25"/><text fill="#000000" font-family="sans-serif" font-size="14" font-weight="bold" lengthAdjust="spacing" textLength="165" x="1194.11" y="45.1738">content - Контент сайта</text><!--MD5=[3c4b48126fec305c2e13c24fa82ecbef]
class LevelEducation--><rect codeLine="10" fill="#FEFECE" filter="url(#frjv0ummat2mf)" height="75.6719" id="LevelEducation" style="stroke:#A80036;stroke-width:1.5;" width="116" x="90.11" y="981.1406"/><ellipse cx="105.11" cy="997.1406" fill="#EB937F" rx="11" ry="11" style="stroke:#A80036;stroke-width:1.0;"/><path d="M103.9694,997.9375 L103.9694,1000.4375 L108.2975,1000.4375 L108.2975,999.5156 Q108.2975,998.9063 108.5397,998.6406 Q108.7819,998.375 109.1569,998.375 Q109.5319,998.375 109.7663,998.6406 Q110.0006,998.9063 110.0006,999.5156 L110.0006,1002.1406 L102.0006,1002.1406 Q101.3756,1002.1406 101.1178,1001.9063 Q100.86,1001.6719 100.86,1001.2813 Q100.86,1000.9063 101.1256,1000.6719 Q101.3913,1000.4375 102.0006,1000.4375 L102.2663,1000.4375 L102.2663,993.7813 L102.0006,993.7813 Q101.3756,993.7813 101.1178,993.5469 Q100.86,993.3125 100.86,992.9219 Q100.86,992.5469 101.1178,992.3125 Q101.3756,992.0781 102.0006,992.0781 L109.6256,992.0781 L109.6256,994.6719 Q109.6256,995.2813 109.3991,995.5391 Q109.1725,995.7969 108.7819,995.7969 Q108.4069,995.7969 108.1725,995.5391 Q107.9381,995.2813 107.9381,994.6719 L107.9381,993.7813 L103.9694,993.7813 L103.9694,996.2344 L105.4538,996.2344 Q105.4538,995.5781 105.5788,995.3906 Q105.8444,994.9844 106.3131,994.9844 Q106.6881,994.9844 106.9225,995.2422 Q107.1569,995.5 107.1569,996.1094 L107.1569,998.0781 Q107.1569,998.625 107.0319,998.8125 Q106.7663,999.2031 106.3131,999.2031 Q105.8444,999.2031 105.5788,998.7969 Q105.4538,998.6094 105.4538,997.9375 L103.9694,997.9375 Z " fill="#000000"/><text fill="#000000" font-family="sans-serif" font-size="12" lengthAdjust="spacing" textLength="84" x="119.11" y="1002.0508">LevelEducation</text><line style="stroke:#A80036;stroke-width:1.5;" x1="91.11" x2="205.11" y1="1013.1406" y2="1013.1406"/><text fill="#000000" font-family="sans-serif" font-size="11" lengthAdjust="spacing" textLength="47" x="96.11" y="1028.5596">id: Integer</text><text fill="#000000" font-family="sans-serif" font-size="11" lengthAdjust="spacing" textLength="60" x="96.11" y="1042.3955">name: String</text><line style="stroke:#A80036;stroke-width:1.5;" x1="91.11" x2="205.11" y1="1048.8125" y2="1048.8125"/><!--MD5=[244939a14b868e2c127e3dbc5bed03b4]
class Faculty--><rect codeLine="16" fill="#FEFECE" filter="url(#frjv0ummat2mf)" height="89.5078" id="Faculty" style="stroke:#A80036;stroke-width:1.5;" width="126" x="85.11" y="776.1406"/><ellipse cx="125.31" cy="792.1406" fill="#ADD1B2" rx="11" ry="11" style="stroke:#A80036;stroke-width:1.0;"/><path d="M128.0756,788.0156 Q128.2319,787.7969 128.4194,787.6875 Q128.6069,787.5781 128.8256,787.5781 Q129.2006,787.5781 129.435,787.8359 Q129.6694,788.0938 129.6694,788.7031 L129.6694,790.1563 Q129.6694,790.7656 129.435,791.0313 Q129.2006,791.2969 128.8256,791.2969 Q128.4819,791.2969 128.2788,791.0938 Q128.0756,790.9063 127.9663,790.3906 Q127.9194,790.0313 127.7319,789.8438 Q127.4038,789.4688 126.7944,789.25 Q126.185,789.0313 125.56,789.0313 Q124.7944,789.0313 124.1616,789.3594 Q123.5288,789.6875 123.0366,790.4375 Q122.5444,791.1875 122.5444,792.2188 L122.5444,793.3125 Q122.5444,794.5469 123.435,795.3672 Q124.3256,796.1875 125.9194,796.1875 Q126.8569,796.1875 127.5131,795.9375 Q127.9038,795.7813 128.3256,795.3438 Q128.5913,795.0781 128.7397,795 Q128.8881,794.9219 129.0913,794.9219 Q129.4194,794.9219 129.6772,795.1797 Q129.935,795.4375 129.935,795.7813 Q129.935,796.125 129.5913,796.5313 Q129.0913,797.1094 128.2944,797.4375 Q127.2163,797.8906 125.9194,797.8906 Q124.4038,797.8906 123.2006,797.2656 Q122.2163,796.7656 121.5288,795.6953 Q120.8413,794.625 120.8413,793.3438 L120.8413,792.1875 Q120.8413,790.8594 121.4584,789.7109 Q122.0756,788.5625 123.1694,787.9453 Q124.2631,787.3281 125.4975,787.3281 Q126.2319,787.3281 126.8803,787.4922 Q127.5288,787.6563 128.0756,788.0156 Z " fill="#000000"/><text fill="#000000" font-family="sans-serif" font-size="12" lengthAdjust="spacing" textLength="38" x="144.91" y="797.0508">Faculty</text><line style="stroke:#A80036;stroke-width:1.5;" x1="86.11" x2="210.11" y1="808.1406" y2="808.1406"/><text fill="#000000" font-family="sans-serif" font-size="11" lengthAdjust="spacing" textLength="47" x="91.11" y="823.5596">id: Integer</text><text fill="#000000" font-family="sans-serif" font-size="11" lengthAdjust="spacing" textLength="60" x="91.11" y="837.3955">name: String</text><text fill="#000000" font-family="sans-serif" font-size="11" lengthAdjust="spacing" textLength="114" x="91.11" y="851.2314">level_education: Integer</text><line style="stroke:#A80036;stroke-width:1.5;" x1="86.11" x2="210.11" y1="857.6484" y2="857.6484"/><!--MD5=[c50d89439a12e948b363c4efab1c487c]
class Department--><rect codeLine="23" fill="#FEFECE" filter="url(#frjv0ummat2mf)" height="75.6719" id="Department" style="stroke:#A80036;stroke-width:1.5;" width="97" x="89.61" y="557.1406"/><ellipse cx="104.61" cy="573.1406" fill="#ADD1B2" rx="11" ry="11" style="stroke:#A80036;stroke-width:1.0;"/><path d="M107.3756,569.0156 Q107.5319,568.7969 107.7194,568.6875 Q107.9069,568.5781 108.1256,568.5781 Q108.5006,568.5781 108.735,568.8359 Q108.9694,569.0938 108.9694,569.7031 L108.9694,571.1563 Q108.9694,571.7656 108.735,572.0313 Q108.5006,572.2969 108.1256,572.2969 Q107.7819,572.2969 107.5788,572.0938 Q107.3756,571.9063 107.2663,571.3906 Q107.2194,571.0313 107.0319,570.8438 Q106.7038,570.4688 106.0944,570.25 Q105.485,570.0313 104.86,570.0313 Q104.0944,570.0313 103.4616,570.3594 Q102.8288,570.6875 102.3366,571.4375 Q101.8444,572.1875 101.8444,573.2188 L101.8444,574.3125 Q101.8444,575.5469 102.735,576.3672 Q103.6256,577.1875 105.2194,577.1875 Q106.1569,577.1875 106.8131,576.9375 Q107.2038,576.7813 107.6256,576.3438 Q107.8913,576.0781 108.0397,576 Q108.1881,575.9219 108.3913,575.9219 Q108.7194,575.9219 108.9772,576.1797 Q109.235,576.4375 109.235,576.7813 Q109.235,577.125 108.8913,577.5313 Q108.3913,578.1094 107.5944,578.4375 Q106.5163,578.8906 105.2194,578.8906 Q103.7038,578.8906 102.5006,578.2656 Q101.5163,577.7656 100.8288,576.6953 Q100.1413,575.625 100.1413,574.3438 L100.1413,573.1875 Q100.1413,571.8594 100.7584,570.7109 Q101.3756,569.5625 102.4694,568.9453 Q103.5631,568.3281 104.7975,568.3281 Q105.5319,568.3281 106.1803,568.4922 Q106.8288,568.6563 107.3756,569.0156 Z " fill="#000000"/><text fill="#000000" font-family="sans-serif" font-size="12" lengthAdjust="spacing" textLength="65" x="118.61" y="578.0508">Department</text><line style="stroke:#A80036;stroke-width:1.5;" x1="90.61" x2="185.61" y1="589.1406" y2="589.1406"/><text fill="#000000" font-family="sans-serif" font-size="11" lengthAdjust="spacing" textLength="47" x="95.61" y="604.5596">id: Integer</text><text fill="#000000" font-family="sans-serif" font-size="11" lengthAdjust="spacing" textLength="60" x="95.61" y="618.3955">name: String</text><line style="stroke:#A80036;stroke-width:1.5;" x1="90.61" x2="185.61" y1="624.8125" y2="624.8125"/><!--MD5=[209029d07fd19def03f61823c9c1351a]
class Campus--><rect codeLine="30" fill="#FEFECE" filter="url(#frjv0ummat2mf)" height="75.6719" id="Campus" style="stroke:#A80036;stroke-width:1.5;" width="86" x="246.11" y="783.1406"/><ellipse cx="263.81" cy="799.1406" fill="#ADD1B2" rx="11" ry="11" style="stroke:#A80036;stroke-width:1.0;"/><path d="M266.5756,795.0156 Q266.7319,794.7969 266.9194,794.6875 Q267.1069,794.5781 267.3256,794.5781 Q267.7006,794.5781 267.935,794.8359 Q268.1694,795.0938 268.1694,795.7031 L268.1694,797.1563 Q268.1694,797.7656 267.935,798.0313 Q267.7006,798.2969 267.3256,798.2969 Q266.9819,798.2969 266.7788,798.0938 Q266.5756,797.9063 266.4663,797.3906 Q266.4194,797.0313 266.2319,796.8438 Q265.9038,796.4688 265.2944,796.25 Q264.685,796.0313 264.06,796.0313 Q263.2944,796.0313 262.6616,796.3594 Q262.0288,796.6875 261.5366,797.4375 Q261.0444,798.1875 261.0444,799.2188 L261.0444,800.3125 Q261.0444,801.5469 261.935,802.3672 Q262.8256,803.1875 264.4194,803.1875 Q265.3569,803.1875 266.0131,802.9375 Q266.4038,802.7813 266.8256,802.3438 Q267.0913,802.0781 267.2397,802 Q267.3881,801.9219 267.5913,801.9219 Q267.9194,801.9219 268.1772,802.1797 Q268.435,802.4375 268.435,802.7813 Q268.435,803.125 268.0913,803.5313 Q267.5913,804.1094 266.7944,804.4375 Q265.7163,804.8906 264.4194,804.8906 Q262.9038,804.8906 261.7006,804.2656 Q260.7163,803.7656 260.0288,802.6953 Q259.3413,801.625 259.3413,800.3438 L259.3413,799.1875 Q259.3413,797.8594 259.9584,796.7109 Q260.5756,795.5625 261.6694,794.9453 Q262.7631,794.3281 263.9975,794.3281 Q264.7319,794.3281 265.3803,794.4922 Q266.0288,794.6563 266.5756,795.0156 Z " fill="#000000"/><text fill="#000000" font-family="sans-serif" font-size="12" lengthAdjust="spacing" textLength="48" x="278.41" y="804.0508">Campus</text><line style="stroke:#A80036;stroke-width:1.5;" x1="247.11" x2="331.11" y1="815.1406" y2="815.1406"/><text fill="#000000" font-family="sans-serif" font-size="11" lengthAdjust="spacing" textLength="47" x="252.11" y="830.5596">id: Integer</text><text fill="#000000" font-family="sans-serif" font-size="11" lengthAdjust="spacing" textLength="74" x="252.11" y="844.3955">address: String</text><line style="stroke:#A80036;stroke-width:1.5;" x1="247.11" x2="331.11" y1="850.8125" y2="850.8125"/><!--MD5=[bec07c1bdb2f4b5ed9f4ff914d6eed84]
class Audience--><rect codeLine="36" fill="#FEFECE" filter="url(#frjv0ummat2mf)" height="89.5078" id="Audience" style="stroke:#A80036;stroke-width:1.5;" width="110" x="222.11" y="550.1406"/><ellipse cx="249.26" cy="566.1406" fill="#ADD1B2" rx="11" ry="11" style="stroke:#A80036;stroke-width:1.0;"/><path d="M252.0256,562.0156 Q252.1819,561.7969 252.3694,561.6875 Q252.5569,561.5781 252.7756,561.5781 Q253.1506,561.5781 253.385,561.8359 Q253.6194,562.0938 253.6194,562.7031 L253.6194,564.1563 Q253.6194,564.7656 253.385,565.0313 Q253.1506,565.2969 252.7756,565.2969 Q252.4319,565.2969 252.2288,565.0938 Q252.0256,564.9063 251.9163,564.3906 Q251.8694,564.0313 251.6819,563.8438 Q251.3538,563.4688 250.7444,563.25 Q250.135,563.0313 249.51,563.0313 Q248.7444,563.0313 248.1116,563.3594 Q247.4788,563.6875 246.9866,564.4375 Q246.4944,565.1875 246.4944,566.2188 L246.4944,567.3125 Q246.4944,568.5469 247.385,569.3672 Q248.2756,570.1875 249.8694,570.1875 Q250.8069,570.1875 251.4631,569.9375 Q251.8538,569.7813 252.2756,569.3438 Q252.5413,569.0781 252.6897,569 Q252.8381,568.9219 253.0413,568.9219 Q253.3694,568.9219 253.6272,569.1797 Q253.885,569.4375 253.885,569.7813 Q253.885,570.125 253.5413,570.5313 Q253.0413,571.1094 252.2444,571.4375 Q251.1663,571.8906 249.8694,571.8906 Q248.3538,571.8906 247.1506,571.2656 Q246.1663,570.7656 245.4788,569.6953 Q244.7913,568.625 244.7913,567.3438 L244.7913,566.1875 Q244.7913,564.8594 245.4084,563.7109 Q246.0256,562.5625 247.1194,561.9453 Q248.2131,561.3281 249.4475,561.3281 Q250.1819,561.3281 250.8303,561.4922 Q251.4788,561.6563 252.0256,562.0156 Z " fill="#000000"/><text fill="#000000" font-family="sans-serif" font-size="12" lengthAdjust="spacing" textLength="51" x="265.96" y="571.0508">Audience</text><line style="stroke:#A80036;stroke-width:1.5;" x1="223.11" x2="331.11" y1="582.1406" y2="582.1406"/><text fill="#000000" font-family="sans-serif" font-size="11" lengthAdjust="spacing" textLength="47" x="228.11" y="597.5596">id: Integer</text><text fill="#000000" font-family="sans-serif" font-size="11" lengthAdjust="spacing" textLength="70" x="228.11" y="611.3955">number: String</text><text fill="#000000" font-family="sans-serif" font-size="11" lengthAdjust="spacing" textLength="98" x="228.11" y="625.2314">extra_settings: Json</text><line style="stroke:#A80036;stroke-width:1.5;" x1="223.11" x2="331.11" y1="631.6484" y2="631.6484"/><!--MD5=[45d42ff7800d812d5f83c7d3273eb427]
class UserRole--><rect codeLine="51" fill="#FEFECE" filter="url(#frjv0ummat2mf)" height="75.6719" id="UserRole" style="stroke:#A80036;stroke-width:1.5;" width="85" x="899.61" y="557.1406"/><ellipse cx="914.61" cy="573.1406" fill="#EB937F" rx="11" ry="11" style="stroke:#A80036;stroke-width:1.0;"/><path d="M913.4694,573.9375 L913.4694,576.4375 L917.7975,576.4375 L917.7975,575.5156 Q917.7975,574.9063 918.0397,574.6406 Q918.2819,574.375 918.6569,574.375 Q919.0319,574.375 919.2663,574.6406 Q919.5006,574.9063 919.5006,575.5156 L919.5006,578.1406 L911.5006,578.1406 Q910.8756,578.1406 910.6178,577.9063 Q910.36,577.6719 910.36,577.2813 Q910.36,576.9063 910.6256,576.6719 Q910.8913,576.4375 911.5006,576.4375 L911.7663,576.4375 L911.7663,569.7813 L911.5006,569.7813 Q910.8756,569.7813 910.6178,569.5469 Q910.36,569.3125 910.36,568.9219 Q910.36,568.5469 910.6178,568.3125 Q910.8756,568.0781 911.5006,568.0781 L919.1256,568.0781 L919.1256,570.6719 Q919.1256,571.2813 918.8991,571.5391 Q918.6725,571.7969 918.2819,571.7969 Q917.9069,571.7969 917.6725,571.5391 Q917.4381,571.2813 917.4381,570.6719 L917.4381,569.7813 L913.4694,569.7813 L913.4694,572.2344 L914.9538,572.2344 Q914.9538,571.5781 915.0788,571.3906 Q915.3444,570.9844 915.8131,570.9844 Q916.1881,570.9844 916.4225,571.2422 Q916.6569,571.5 916.6569,572.1094 L916.6569,574.0781 Q916.6569,574.625 916.5319,574.8125 Q916.2663,575.2031 915.8131,575.2031 Q915.3444,575.2031 915.0788,574.7969 Q914.9538,574.6094 914.9538,573.9375 L913.4694,573.9375 Z " fill="#000000"/><text fill="#000000" font-family="sans-serif" font-size="12" lengthAdjust="spacing" textLength="53" x="928.61" y="578.0508">UserRole</text><line style="stroke:#A80036;stroke-width:1.5;" x1="900.61" x2="983.61" y1="589.1406" y2="589.1406"/><text fill="#000000" font-family="sans-serif" font-size="11" lengthAdjust="spacing" textLength="47" x="905.61" y="604.5596">id: Integer</text><text fill="#000000" font-family="sans-serif" font-size="11" lengthAdjust="spacing" textLength="60" x="905.61" y="618.3955">name: String</text><line style="stroke:#A80036;stroke-width:1.5;" x1="900.61" x2="983.61" y1="624.8125" y2="624.8125"/><!--MD5=[73271e45a43e512b41cca347d035708e]
class UserPermissions--><rect codeLine="57" fill="#FEFECE" filter="url(#frjv0ummat2mf)" height="75.6719" id="UserPermissions" style="stroke:#A80036;stroke-width:1.5;" width="130" x="1020.11" y="557.1406"/><ellipse cx="1035.11" cy="573.1406" fill="#EB937F" rx="11" ry="11" style="stroke:#A80036;stroke-width:1.0;"/><path d="M1033.9694,573.9375 L1033.9694,576.4375 L1038.2975,576.4375 L1038.2975,575.5156 Q1038.2975,574.9063 1038.5397,574.6406 Q1038.7819,574.375 1039.1569,574.375 Q1039.5319,574.375 1039.7663,574.6406 Q1040.0006,574.9063 1040.0006,575.5156 L1040.0006,578.1406 L1032.0006,578.1406 Q1031.3756,578.1406 1031.1178,577.9063 Q1030.86,577.6719 1030.86,577.2813 Q1030.86,576.9063 1031.1256,576.6719 Q1031.3913,576.4375 1032.0006,576.4375 L1032.2663,576.4375 L1032.2663,569.7813 L1032.0006,569.7813 Q1031.3756,569.7813 1031.1178,569.5469 Q1030.86,569.3125 1030.86,568.9219 Q1030.86,568.5469 1031.1178,568.3125 Q1031.3756,568.0781 1032.0006,568.0781 L1039.6256,568.0781 L1039.6256,570.6719 Q1039.6256,571.2813 1039.3991,571.5391 Q1039.1725,571.7969 1038.7819,571.7969 Q1038.4069,571.7969 1038.1725,571.5391 Q1037.9381,571.2813 1037.9381,570.6719 L1037.9381,569.7813 L1033.9694,569.7813 L1033.9694,572.2344 L1035.4538,572.2344 Q1035.4538,571.5781 1035.5788,571.3906 Q1035.8444,570.9844 1036.3131,570.9844 Q1036.6881,570.9844 1036.9225,571.2422 Q1037.1569,571.5 1037.1569,572.1094 L1037.1569,574.0781 Q1037.1569,574.625 1037.0319,574.8125 Q1036.7663,575.2031 1036.3131,575.2031 Q1035.8444,575.2031 1035.5788,574.7969 Q1035.4538,574.6094 1035.4538,573.9375 L1033.9694,573.9375 Z " fill="#000000"/><text fill="#000000" font-family="sans-serif" font-size="12" lengthAdjust="spacing" textLength="98" x="1049.11" y="578.0508">UserPermissions</text><line style="stroke:#A80036;stroke-width:1.5;" x1="1021.11" x2="1149.11" y1="589.1406" y2="589.1406"/><text fill="#000000" font-family="sans-serif" font-size="11" lengthAdjust="spacing" textLength="47" x="1026.11" y="604.5596">id: Integer</text><text fill="#000000" font-family="sans-serif" font-size="11" lengthAdjust="spacing" textLength="60" x="1026.11" y="618.3955">name: String</text><line style="stroke:#A80036;stroke-width:1.5;" x1="1021.11" x2="1149.11" y1="624.8125" y2="624.8125"/><!--MD5=[3fd616f346a44cd59a91eb10b19e157c]
class User--><rect codeLine="63" fill="#FEFECE" filter="url(#frjv0ummat2mf)" height="200.1953" id="User" style="stroke:#A80036;stroke-width:1.5;" width="177" x="899.61" y="255.6406"/><ellipse cx="970.36" cy="271.6406" fill="#ADD1B2" rx="11" ry="11" style="stroke:#A80036;stroke-width:1.0;"/><path d="M973.1256,267.5156 Q973.2819,267.2969 973.4694,267.1875 Q973.6569,267.0781 973.8756,267.0781 Q974.2506,267.0781 974.485,267.3359 Q974.7194,267.5938 974.7194,268.2031 L974.7194,269.6563 Q974.7194,270.2656 974.485,270.5313 Q974.2506,270.7969 973.8756,270.7969 Q973.5319,270.7969 973.3288,270.5938 Q973.1256,270.4063 973.0163,269.8906 Q972.9694,269.5313 972.7819,269.3438 Q972.4538,268.9688 971.8444,268.75 Q971.235,268.5313 970.61,268.5313 Q969.8444,268.5313 969.2116,268.8594 Q968.5788,269.1875 968.0866,269.9375 Q967.5944,270.6875 967.5944,271.7188 L967.5944,272.8125 Q967.5944,274.0469 968.485,274.8672 Q969.3756,275.6875 970.9694,275.6875 Q971.9069,275.6875 972.5631,275.4375 Q972.9538,275.2813 973.3756,274.8438 Q973.6413,274.5781 973.7897,274.5 Q973.9381,274.4219 974.1413,274.4219 Q974.4694,274.4219 974.7272,274.6797 Q974.985,274.9375 974.985,275.2813 Q974.985,275.625 974.6413,276.0313 Q974.1413,276.6094 973.3444,276.9375 Q972.2663,277.3906 970.9694,277.3906 Q969.4538,277.3906 968.2506,276.7656 Q967.2663,276.2656 966.5788,275.1953 Q965.8913,274.125 965.8913,272.8438 L965.8913,271.6875 Q965.8913,270.3594 966.5084,269.2109 Q967.1256,268.0625 968.2194,267.4453 Q969.3131,266.8281 970.5475,266.8281 Q971.2819,266.8281 971.9303,266.9922 Q972.5788,267.1563 973.1256,267.5156 Z " fill="#000000"/><text fill="#000000" font-family="sans-serif" font-size="12" lengthAdjust="spacing" textLength="27" x="990.86" y="276.5508">User</text><line style="stroke:#A80036;stroke-width:1.5;" x1="900.61" x2="1075.61" y1="287.6406" y2="287.6406"/><text fill="#000000" font-family="sans-serif" font-size="11" lengthAdjust="spacing" textLength="47" x="905.61" y="303.0596">id: Integer</text><text fill="#000000" font-family="sans-serif" font-size="11" lengthAdjust="spacing" textLength="58" x="905.61" y="316.8955">email: String</text><text fill="#000000" font-family="sans-serif" font-size="11" lengthAdjust="spacing" textLength="84" x="905.61" y="330.7314">password: String</text><text fill="#000000" font-family="sans-serif" font-size="11" lengthAdjust="spacing" textLength="107" x="905.61" y="344.5674">password_salt: String</text><text fill="#000000" font-family="sans-serif" font-size="11" lengthAdjust="spacing" textLength="114" x="905.61" y="358.4033">frontend_settings: Json</text><text fill="#000000" font-family="sans-serif" font-size="11" lengthAdjust="spacing" textLength="83" x="905.61" y="372.2393">last_name: String</text><text fill="#000000" font-family="sans-serif" font-size="11" lengthAdjust="spacing" textLength="85" x="905.61" y="386.0752">first_name: String</text><text fill="#000000" font-family="sans-serif" font-size="11" lengthAdjust="spacing" textLength="102" x="905.61" y="399.9111">second_name: String</text><text fill="#000000" font-family="sans-serif" font-size="11" lengthAdjust="spacing" textLength="76" x="905.61" y="413.7471">date_birth: Date</text><line style="stroke:#A80036;stroke-width:1.5;" x1="900.61" x2="1075.61" y1="420.1641" y2="420.1641"/><text fill="#000000" font-family="sans-serif" font-size="11" lengthAdjust="spacing" textLength="111" x="905.61" y="435.583">get_full_name() : string</text><text fill="#000000" font-family="sans-serif" font-size="11" lengthAdjust="spacing" textLength="165" x="905.61" y="449.4189">send_email(Mail mail_object) : void</text><!--MD5=[1a56b3c058b31996c7cec1e8622782e5]
class DayWeek--><rect codeLine="85" fill="#FEFECE" filter="url(#frjv0ummat2mf)" height="75.6719" id="DayWeek" style="stroke:#A80036;stroke-width:1.5;" width="84" x="561.11" y="1130.6406"/><ellipse cx="576.11" cy="1146.6406" fill="#EB937F" rx="11" ry="11" style="stroke:#A80036;stroke-width:1.0;"/><path d="M574.9694,1147.4375 L574.9694,1149.9375 L579.2975,1149.9375 L579.2975,1149.0156 Q579.2975,1148.4063 579.5397,1148.1406 Q579.7819,1147.875 580.1569,1147.875 Q580.5319,1147.875 580.7663,1148.1406 Q581.0006,1148.4063 581.0006,1149.0156 L581.0006,1151.6406 L573.0006,1151.6406 Q572.3756,1151.6406 572.1178,1151.4063 Q571.86,1151.1719 571.86,1150.7813 Q571.86,1150.4063 572.1256,1150.1719 Q572.3913,1149.9375 573.0006,1149.9375 L573.2663,1149.9375 L573.2663,1143.2813 L573.0006,1143.2813 Q572.3756,1143.2813 572.1178,1143.0469 Q571.86,1142.8125 571.86,1142.4219 Q571.86,1142.0469 572.1178,1141.8125 Q572.3756,1141.5781 573.0006,1141.5781 L580.6256,1141.5781 L580.6256,1144.1719 Q580.6256,1144.7813 580.3991,1145.0391 Q580.1725,1145.2969 579.7819,1145.2969 Q579.4069,1145.2969 579.1725,1145.0391 Q578.9381,1144.7813 578.9381,1144.1719 L578.9381,1143.2813 L574.9694,1143.2813 L574.9694,1145.7344 L576.4538,1145.7344 Q576.4538,1145.0781 576.5788,1144.8906 Q576.8444,1144.4844 577.3131,1144.4844 Q577.6881,1144.4844 577.9225,1144.7422 Q578.1569,1145 578.1569,1145.6094 L578.1569,1147.5781 Q578.1569,1148.125 578.0319,1148.3125 Q577.7663,1148.7031 577.3131,1148.7031 Q576.8444,1148.7031 576.5788,1148.2969 Q576.4538,1148.1094 576.4538,1147.4375 L574.9694,1147.4375 Z " fill="#000000"/><text fill="#000000" font-family="sans-serif" font-size="12" lengthAdjust="spacing" textLength="52" x="590.11" y="1151.5508">DayWeek</text><line style="stroke:#A80036;stroke-width:1.5;" x1="562.11" x2="644.11" y1="1162.6406" y2="1162.6406"/><text fill="#000000" font-family="sans-serif" font-size="11" lengthAdjust="spacing" textLength="47" x="567.11" y="1178.0596">id: Integer</text><text fill="#000000" font-family="sans-serif" font-size="11" lengthAdjust="spacing" textLength="60" x="567.11" y="1191.8955">name: String</text><line style="stroke:#A80036;stroke-width:1.5;" x1="562.11" x2="644.11" y1="1198.3125" y2="1198.3125"/><!--MD5=[948c0814a6ec018750289a189941a986]
class Week--><rect codeLine="91" fill="#FEFECE" filter="url(#frjv0ummat2mf)" height="89.5078" id="Week" style="stroke:#A80036;stroke-width:1.5;" width="116" x="545.11" y="974.1406"/><ellipse cx="583.96" cy="990.1406" fill="#ADD1B2" rx="11" ry="11" style="stroke:#A80036;stroke-width:1.0;"/><path d="M586.7256,986.0156 Q586.8819,985.7969 587.0694,985.6875 Q587.2569,985.5781 587.4756,985.5781 Q587.8506,985.5781 588.085,985.8359 Q588.3194,986.0938 588.3194,986.7031 L588.3194,988.1563 Q588.3194,988.7656 588.085,989.0313 Q587.8506,989.2969 587.4756,989.2969 Q587.1319,989.2969 586.9288,989.0938 Q586.7256,988.9063 586.6163,988.3906 Q586.5694,988.0313 586.3819,987.8438 Q586.0538,987.4688 585.4444,987.25 Q584.835,987.0313 584.21,987.0313 Q583.4444,987.0313 582.8116,987.3594 Q582.1788,987.6875 581.6866,988.4375 Q581.1944,989.1875 581.1944,990.2188 L581.1944,991.3125 Q581.1944,992.5469 582.085,993.3672 Q582.9756,994.1875 584.5694,994.1875 Q585.5069,994.1875 586.1631,993.9375 Q586.5538,993.7813 586.9756,993.3438 Q587.2413,993.0781 587.3897,993 Q587.5381,992.9219 587.7413,992.9219 Q588.0694,992.9219 588.3272,993.1797 Q588.585,993.4375 588.585,993.7813 Q588.585,994.125 588.2413,994.5313 Q587.7413,995.1094 586.9444,995.4375 Q585.8663,995.8906 584.5694,995.8906 Q583.0538,995.8906 581.8506,995.2656 Q580.8663,994.7656 580.1788,993.6953 Q579.4913,992.625 579.4913,991.3438 L579.4913,990.1875 Q579.4913,988.8594 580.1084,987.7109 Q580.7256,986.5625 581.8194,985.9453 Q582.9131,985.3281 584.1475,985.3281 Q584.8819,985.3281 585.5303,985.4922 Q586.1788,985.6563 586.7256,986.0156 Z " fill="#000000"/><text fill="#000000" font-family="sans-serif" font-size="12" lengthAdjust="spacing" textLength="31" x="603.26" y="995.0508">Week</text><line style="stroke:#A80036;stroke-width:1.5;" x1="546.11" x2="660.11" y1="1006.1406" y2="1006.1406"/><text fill="#000000" font-family="sans-serif" font-size="11" lengthAdjust="spacing" textLength="47" x="551.11" y="1021.5596">id: Integer</text><text fill="#000000" font-family="sans-serif" font-size="11" lengthAdjust="spacing" textLength="104" x="551.11" y="1035.3955">day_week_id: Integer</text><text fill="#000000" font-family="sans-serif" font-size="11" lengthAdjust="spacing" textLength="83" x="551.11" y="1049.2314">is_even: Boolean</text><line style="stroke:#A80036;stroke-width:1.5;" x1="546.11" x2="660.11" y1="1055.6484" y2="1055.6484"/><!--MD5=[b0c046f067568c65d22d7103fc9fd64d]
class LessonType--><rect codeLine="98" fill="#FEFECE" filter="url(#frjv0ummat2mf)" height="103.3438" id="LessonType" style="stroke:#A80036;stroke-width:1.5;" width="100" x="696.11" y="967.6406"/><ellipse cx="711.11" cy="983.6406" fill="#ADD1B2" rx="11" ry="11" style="stroke:#A80036;stroke-width:1.0;"/><path d="M713.8756,979.5156 Q714.0319,979.2969 714.2194,979.1875 Q714.4069,979.0781 714.6256,979.0781 Q715.0006,979.0781 715.235,979.3359 Q715.4694,979.5938 715.4694,980.2031 L715.4694,981.6563 Q715.4694,982.2656 715.235,982.5313 Q715.0006,982.7969 714.6256,982.7969 Q714.2819,982.7969 714.0788,982.5938 Q713.8756,982.4063 713.7663,981.8906 Q713.7194,981.5313 713.5319,981.3438 Q713.2038,980.9688 712.5944,980.75 Q711.985,980.5313 711.36,980.5313 Q710.5944,980.5313 709.9616,980.8594 Q709.3288,981.1875 708.8366,981.9375 Q708.3444,982.6875 708.3444,983.7188 L708.3444,984.8125 Q708.3444,986.0469 709.235,986.8672 Q710.1256,987.6875 711.7194,987.6875 Q712.6569,987.6875 713.3131,987.4375 Q713.7038,987.2813 714.1256,986.8438 Q714.3913,986.5781 714.5397,986.5 Q714.6881,986.4219 714.8913,986.4219 Q715.2194,986.4219 715.4772,986.6797 Q715.735,986.9375 715.735,987.2813 Q715.735,987.625 715.3913,988.0313 Q714.8913,988.6094 714.0944,988.9375 Q713.0163,989.3906 711.7194,989.3906 Q710.2038,989.3906 709.0006,988.7656 Q708.0163,988.2656 707.3288,987.1953 Q706.6413,986.125 706.6413,984.8438 L706.6413,983.6875 Q706.6413,982.3594 707.2584,981.2109 Q707.8756,980.0625 708.9694,979.4453 Q710.0631,978.8281 711.2975,978.8281 Q712.0319,978.8281 712.6803,978.9922 Q713.3288,979.1563 713.8756,979.5156 Z " fill="#000000"/><text fill="#000000" font-family="sans-serif" font-size="12" lengthAdjust="spacing" textLength="68" x="725.11" y="988.5508">LessonType</text><line style="stroke:#A80036;stroke-width:1.5;" x1="697.11" x2="795.11" y1="999.6406" y2="999.6406"/><text fill="#000000" font-family="sans-serif" font-size="11" lengthAdjust="spacing" textLength="47" x="702.11" y="1015.0596">id: Integer</text><text fill="#000000" font-family="sans-serif" font-size="11" lengthAdjust="spacing" textLength="65" x="702.11" y="1028.8955">order: Integer</text><text fill="#000000" font-family="sans-serif" font-size="11" lengthAdjust="spacing" textLength="75" x="702.11" y="1042.7314">start_time: Time</text><text fill="#000000" font-family="sans-serif" font-size="11" lengthAdjust="spacing" textLength="71" x="702.11" y="1056.5674">end_time: Time</text><line style="stroke:#A80036;stroke-width:1.5;" x1="697.11" x2="795.11" y1="1062.9844" y2="1062.9844"/><!--MD5=[43eb79777787e83dcab1adc8d2b5c2d3]
class Lesson--><rect codeLine="106" fill="#FEFECE" filter="url(#frjv0ummat2mf)" height="172.5234" id="Lesson" style="stroke:#A80036;stroke-width:1.5;" width="150" x="545.11" y="734.6406"/><ellipse cx="594.86" cy="750.6406" fill="#ADD1B2" rx="11" ry="11" style="stroke:#A80036;stroke-width:1.0;"/><path d="M597.6256,746.5156 Q597.7819,746.2969 597.9694,746.1875 Q598.1569,746.0781 598.3756,746.0781 Q598.7506,746.0781 598.985,746.3359 Q599.2194,746.5938 599.2194,747.2031 L599.2194,748.6563 Q599.2194,749.2656 598.985,749.5313 Q598.7506,749.7969 598.3756,749.7969 Q598.0319,749.7969 597.8288,749.5938 Q597.6256,749.4063 597.5163,748.8906 Q597.4694,748.5313 597.2819,748.3438 Q596.9538,747.9688 596.3444,747.75 Q595.735,747.5313 595.11,747.5313 Q594.3444,747.5313 593.7116,747.8594 Q593.0788,748.1875 592.5866,748.9375 Q592.0944,749.6875 592.0944,750.7188 L592.0944,751.8125 Q592.0944,753.0469 592.985,753.8672 Q593.8756,754.6875 595.4694,754.6875 Q596.4069,754.6875 597.0631,754.4375 Q597.4538,754.2813 597.8756,753.8438 Q598.1413,753.5781 598.2897,753.5 Q598.4381,753.4219 598.6413,753.4219 Q598.9694,753.4219 599.2272,753.6797 Q599.485,753.9375 599.485,754.2813 Q599.485,754.625 599.1413,755.0313 Q598.6413,755.6094 597.8444,755.9375 Q596.7663,756.3906 595.4694,756.3906 Q593.9538,756.3906 592.7506,755.7656 Q591.7663,755.2656 591.0788,754.1953 Q590.3913,753.125 590.3913,751.8438 L590.3913,750.6875 Q590.3913,749.3594 591.0084,748.2109 Q591.6256,747.0625 592.7194,746.4453 Q593.8131,745.8281 595.0475,745.8281 Q595.7819,745.8281 596.4303,745.9922 Q597.0788,746.1563 597.6256,746.5156 Z " fill="#000000"/><text fill="#000000" font-family="sans-serif" font-size="12" lengthAdjust="spacing" textLength="42" x="615.36" y="755.5508">Lesson</text><line style="stroke:#A80036;stroke-width:1.5;" x1="546.11" x2="694.11" y1="766.6406" y2="766.6406"/><text fill="#000000" font-family="sans-serif" font-size="11" lengthAdjust="spacing" textLength="47" x="551.11" y="782.0596">id: Integer</text><text fill="#000000" font-family="sans-serif" font-size="11" lengthAdjust="spacing" textLength="65" x="551.11" y="795.8955">order: Integer</text><text fill="#000000" font-family="sans-serif" font-size="11" lengthAdjust="spacing" textLength="112" x="551.11" y="809.7314">lesson_type_id: Integer</text><text fill="#000000" font-family="sans-serif" font-size="11" lengthAdjust="spacing" textLength="80" x="551.11" y="823.5674">week_id: Integer</text><text fill="#000000" font-family="sans-serif" font-size="11" lengthAdjust="spacing" textLength="101" x="551.11" y="837.4033">audience_id: Interger</text><text fill="#000000" font-family="sans-serif" font-size="11" lengthAdjust="spacing" textLength="94" x="551.11" y="851.2393">teacher_id: Interger</text><text fill="#000000" font-family="sans-serif" font-size="11" lengthAdjust="spacing" textLength="138" x="551.11" y="865.0752">education_lesson_id: Integer</text><text fill="#000000" font-family="sans-serif" font-size="11" lengthAdjust="spacing" textLength="134" x="551.11" y="878.9111">education_group_id: Integer</text><text fill="#000000" font-family="sans-serif" font-size="11" lengthAdjust="spacing" textLength="49" x="551.11" y="892.7471">date: Date</text><line style="stroke:#A80036;stroke-width:1.5;" x1="546.11" x2="694.11" y1="899.1641" y2="899.1641"/><!--MD5=[8423ce4c87698aa4203df2d57614ffc6]
class SiteType--><rect codeLine="126" fill="#FEFECE" filter="url(#frjv0ummat2mf)" height="75.6719" id="SiteType" style="stroke:#A80036;stroke-width:1.5;" width="79" x="1215.61" y="783.1406"/><ellipse cx="1230.61" cy="799.1406" fill="#EB937F" rx="11" ry="11" style="stroke:#A80036;stroke-width:1.0;"/><path d="M1229.4694,799.9375 L1229.4694,802.4375 L1233.7975,802.4375 L1233.7975,801.5156 Q1233.7975,800.9063 1234.0397,800.6406 Q1234.2819,800.375 1234.6569,800.375 Q1235.0319,800.375 1235.2663,800.6406 Q1235.5006,800.9063 1235.5006,801.5156 L1235.5006,804.1406 L1227.5006,804.1406 Q1226.8756,804.1406 1226.6178,803.9063 Q1226.36,803.6719 1226.36,803.2813 Q1226.36,802.9063 1226.6256,802.6719 Q1226.8913,802.4375 1227.5006,802.4375 L1227.7663,802.4375 L1227.7663,795.7813 L1227.5006,795.7813 Q1226.8756,795.7813 1226.6178,795.5469 Q1226.36,795.3125 1226.36,794.9219 Q1226.36,794.5469 1226.6178,794.3125 Q1226.8756,794.0781 1227.5006,794.0781 L1235.1256,794.0781 L1235.1256,796.6719 Q1235.1256,797.2813 1234.8991,797.5391 Q1234.6725,797.7969 1234.2819,797.7969 Q1233.9069,797.7969 1233.6725,797.5391 Q1233.4381,797.2813 1233.4381,796.6719 L1233.4381,795.7813 L1229.4694,795.7813 L1229.4694,798.2344 L1230.9538,798.2344 Q1230.9538,797.5781 1231.0788,797.3906 Q1231.3444,796.9844 1231.8131,796.9844 Q1232.1881,796.9844 1232.4225,797.2422 Q1232.6569,797.5 1232.6569,798.1094 L1232.6569,800.0781 Q1232.6569,800.625 1232.5319,800.8125 Q1232.2663,801.2031 1231.8131,801.2031 Q1231.3444,801.2031 1231.0788,800.7969 Q1230.9538,800.6094 1230.9538,799.9375 L1229.4694,799.9375 Z " fill="#000000"/><text fill="#000000" font-family="sans-serif" font-size="12" lengthAdjust="spacing" textLength="47" x="1244.61" y="804.0508">SiteType</text><line style="stroke:#A80036;stroke-width:1.5;" x1="1216.61" x2="1293.61" y1="815.1406" y2="815.1406"/><text fill="#000000" font-family="sans-serif" font-size="11" lengthAdjust="spacing" textLength="47" x="1221.61" y="830.5596">id: Integer</text><text fill="#000000" font-family="sans-serif" font-size="11" lengthAdjust="spacing" textLength="60" x="1221.61" y="844.3955">name: String</text><line style="stroke:#A80036;stroke-width:1.5;" x1="1216.61" x2="1293.61" y1="850.8125" y2="850.8125"/><!--MD5=[bbad56bc7779fe6d833d77eae0c25c05]
class Theme--><rect codeLine="132" fill="#FEFECE" filter="url(#frjv0ummat2mf)" height="89.5078" id="Theme" style="stroke:#A80036;stroke-width:1.5;" width="93" x="1329.61" y="776.1406"/><ellipse cx="1354.51" cy="792.1406" fill="#ADD1B2" rx="11" ry="11" style="stroke:#A80036;stroke-width:1.0;"/><path d="M1357.2756,788.0156 Q1357.4319,787.7969 1357.6194,787.6875 Q1357.8069,787.5781 1358.0256,787.5781 Q1358.4006,787.5781 1358.635,787.8359 Q1358.8694,788.0938 1358.8694,788.7031 L1358.8694,790.1563 Q1358.8694,790.7656 1358.635,791.0313 Q1358.4006,791.2969 1358.0256,791.2969 Q1357.6819,791.2969 1357.4788,791.0938 Q1357.2756,790.9063 1357.1663,790.3906 Q1357.1194,790.0313 1356.9319,789.8438 Q1356.6038,789.4688 1355.9944,789.25 Q1355.385,789.0313 1354.76,789.0313 Q1353.9944,789.0313 1353.3616,789.3594 Q1352.7288,789.6875 1352.2366,790.4375 Q1351.7444,791.1875 1351.7444,792.2188 L1351.7444,793.3125 Q1351.7444,794.5469 1352.635,795.3672 Q1353.5256,796.1875 1355.1194,796.1875 Q1356.0569,796.1875 1356.7131,795.9375 Q1357.1038,795.7813 1357.5256,795.3438 Q1357.7913,795.0781 1357.9397,795 Q1358.0881,794.9219 1358.2913,794.9219 Q1358.6194,794.9219 1358.8772,795.1797 Q1359.135,795.4375 1359.135,795.7813 Q1359.135,796.125 1358.7913,796.5313 Q1358.2913,797.1094 1357.4944,797.4375 Q1356.4163,797.8906 1355.1194,797.8906 Q1353.6038,797.8906 1352.4006,797.2656 Q1351.4163,796.7656 1350.7288,795.6953 Q1350.0413,794.625 1350.0413,793.3438 L1350.0413,792.1875 Q1350.0413,790.8594 1350.6584,789.7109 Q1351.2756,788.5625 1352.3694,787.9453 Q1353.4631,787.3281 1354.6975,787.3281 Q1355.4319,787.3281 1356.0803,787.4922 Q1356.7288,787.6563 1357.2756,788.0156 Z " fill="#000000"/><text fill="#000000" font-family="sans-serif" font-size="12" lengthAdjust="spacing" textLength="39" x="1370.71" y="797.0508">Theme</text><line style="stroke:#A80036;stroke-width:1.5;" x1="1330.61" x2="1421.61" y1="808.1406" y2="808.1406"/><text fill="#000000" font-family="sans-serif" font-size="11" lengthAdjust="spacing" textLength="47" x="1335.61" y="823.5596">id: Integer</text><text fill="#000000" font-family="sans-serif" font-size="11" lengthAdjust="spacing" textLength="60" x="1335.61" y="837.3955">name: String</text><text fill="#000000" font-family="sans-serif" font-size="11" lengthAdjust="spacing" textLength="81" x="1335.61" y="851.2314">is_main: Boolean</text><line style="stroke:#A80036;stroke-width:1.5;" x1="1330.61" x2="1421.61" y1="857.6484" y2="857.6484"/><!--MD5=[7eeb4b838a05227218a56e467b2beb72]
class Site--><rect codeLine="139" fill="#FEFECE" filter="url(#frjv0ummat2mf)" height="158.6875" id="Site" style="stroke:#A80036;stroke-width:1.5;" width="117" x="1261.61" y="515.6406"/><ellipse cx="1305.41" cy="531.6406" fill="#ADD1B2" rx="11" ry="11" style="stroke:#A80036;stroke-width:1.0;"/><path d="M1308.1756,527.5156 Q1308.3319,527.2969 1308.5194,527.1875 Q1308.7069,527.0781 1308.9256,527.0781 Q1309.3006,527.0781 1309.535,527.3359 Q1309.7694,527.5938 1309.7694,528.2031 L1309.7694,529.6563 Q1309.7694,530.2656 1309.535,530.5313 Q1309.3006,530.7969 1308.9256,530.7969 Q1308.5819,530.7969 1308.3787,530.5938 Q1308.1756,530.4063 1308.0662,529.8906 Q1308.0194,529.5313 1307.8319,529.3438 Q1307.5037,528.9688 1306.8944,528.75 Q1306.285,528.5313 1305.66,528.5313 Q1304.8944,528.5313 1304.2616,528.8594 Q1303.6287,529.1875 1303.1366,529.9375 Q1302.6444,530.6875 1302.6444,531.7188 L1302.6444,532.8125 Q1302.6444,534.0469 1303.535,534.8672 Q1304.4256,535.6875 1306.0194,535.6875 Q1306.9569,535.6875 1307.6131,535.4375 Q1308.0037,535.2813 1308.4256,534.8438 Q1308.6912,534.5781 1308.8397,534.5 Q1308.9881,534.4219 1309.1912,534.4219 Q1309.5194,534.4219 1309.7772,534.6797 Q1310.035,534.9375 1310.035,535.2813 Q1310.035,535.625 1309.6912,536.0313 Q1309.1912,536.6094 1308.3944,536.9375 Q1307.3162,537.3906 1306.0194,537.3906 Q1304.5037,537.3906 1303.3006,536.7656 Q1302.3162,536.2656 1301.6287,535.1953 Q1300.9412,534.125 1300.9412,532.8438 L1300.9412,531.6875 Q1300.9412,530.3594 1301.5584,529.2109 Q1302.1756,528.0625 1303.2694,527.4453 Q1304.3631,526.8281 1305.5975,526.8281 Q1306.3319,526.8281 1306.9803,526.9922 Q1307.6287,527.1563 1308.1756,527.5156 Z " fill="#000000"/><text fill="#000000" font-family="sans-serif" font-size="12" lengthAdjust="spacing" textLength="21" x="1325.81" y="536.5508">Site</text><line style="stroke:#A80036;stroke-width:1.5;" x1="1262.61" x2="1377.61" y1="547.6406" y2="547.6406"/><text fill="#000000" font-family="sans-serif" font-size="11" lengthAdjust="spacing" textLength="47" x="1267.61" y="563.0596">id: Integer</text><text fill="#000000" font-family="sans-serif" font-size="11" lengthAdjust="spacing" textLength="82" x="1267.61" y="576.8955">theme_id: Integer</text><text fill="#000000" font-family="sans-serif" font-size="11" lengthAdjust="spacing" textLength="105" x="1267.61" y="590.7314">is_published: Boolean</text><text fill="#000000" font-family="sans-serif" font-size="11" lengthAdjust="spacing" textLength="87" x="1267.61" y="604.5674">description: String</text><text fill="#000000" font-family="sans-serif" font-size="11" lengthAdjust="spacing" textLength="68" x="1267.61" y="618.4033">domain: String</text><text fill="#000000" font-family="sans-serif" font-size="11" lengthAdjust="spacing" textLength="50" x="1267.61" y="632.2393">title: String</text><text fill="#000000" font-family="sans-serif" font-size="11" lengthAdjust="spacing" textLength="60" x="1267.61" y="646.0752">name: String</text><text fill="#000000" font-family="sans-serif" font-size="11" lengthAdjust="spacing" textLength="53" x="1267.61" y="659.9111">body: Json</text><line style="stroke:#A80036;stroke-width:1.5;" x1="1262.61" x2="1377.61" y1="666.3281" y2="666.3281"/><!--MD5=[6a494c20d032ff54e1efa92c1369bc7b]
class Page--><rect codeLine="152" fill="#FEFECE" filter="url(#frjv0ummat2mf)" height="158.6875" id="Page" style="stroke:#A80036;stroke-width:1.5;" width="117" x="1510.61" y="276.1406"/><ellipse cx="1550.81" cy="292.1406" fill="#ADD1B2" rx="11" ry="11" style="stroke:#A80036;stroke-width:1.0;"/><path d="M1553.5756,288.0156 Q1553.7319,287.7969 1553.9194,287.6875 Q1554.1069,287.5781 1554.3256,287.5781 Q1554.7006,287.5781 1554.935,287.8359 Q1555.1694,288.0938 1555.1694,288.7031 L1555.1694,290.1563 Q1555.1694,290.7656 1554.935,291.0313 Q1554.7006,291.2969 1554.3256,291.2969 Q1553.9819,291.2969 1553.7788,291.0938 Q1553.5756,290.9063 1553.4663,290.3906 Q1553.4194,290.0313 1553.2319,289.8438 Q1552.9038,289.4688 1552.2944,289.25 Q1551.685,289.0313 1551.06,289.0313 Q1550.2944,289.0313 1549.6616,289.3594 Q1549.0288,289.6875 1548.5366,290.4375 Q1548.0444,291.1875 1548.0444,292.2188 L1548.0444,293.3125 Q1548.0444,294.5469 1548.935,295.3672 Q1549.8256,296.1875 1551.4194,296.1875 Q1552.3569,296.1875 1553.0131,295.9375 Q1553.4038,295.7813 1553.8256,295.3438 Q1554.0913,295.0781 1554.2397,295 Q1554.3881,294.9219 1554.5913,294.9219 Q1554.9194,294.9219 1555.1772,295.1797 Q1555.435,295.4375 1555.435,295.7813 Q1555.435,296.125 1555.0913,296.5313 Q1554.5913,297.1094 1553.7944,297.4375 Q1552.7163,297.8906 1551.4194,297.8906 Q1549.9038,297.8906 1548.7006,297.2656 Q1547.7163,296.7656 1547.0288,295.6953 Q1546.3413,294.625 1546.3413,293.3438 L1546.3413,292.1875 Q1546.3413,290.8594 1546.9584,289.7109 Q1547.5756,288.5625 1548.6694,287.9453 Q1549.7631,287.3281 1550.9975,287.3281 Q1551.7319,287.3281 1552.3803,287.4922 Q1553.0288,287.6563 1553.5756,288.0156 Z " fill="#000000"/><text fill="#000000" font-family="sans-serif" font-size="12" lengthAdjust="spacing" textLength="29" x="1570.41" y="297.0508">Page</text><line style="stroke:#A80036;stroke-width:1.5;" x1="1511.61" x2="1626.61" y1="308.1406" y2="308.1406"/><text fill="#000000" font-family="sans-serif" font-size="11" lengthAdjust="spacing" textLength="47" x="1516.61" y="323.5596">id: Integer</text><text fill="#000000" font-family="sans-serif" font-size="11" lengthAdjust="spacing" textLength="70" x="1516.61" y="337.3955">site_id: Integer</text><text fill="#000000" font-family="sans-serif" font-size="11" lengthAdjust="spacing" textLength="105" x="1516.61" y="351.2314">is_published: Boolean</text><text fill="#000000" font-family="sans-serif" font-size="11" lengthAdjust="spacing" textLength="71" x="1516.61" y="365.0674">self_id: Integer</text><text fill="#000000" font-family="sans-serif" font-size="11" lengthAdjust="spacing" textLength="46" x="1516.61" y="378.9033">url: String</text><text fill="#000000" font-family="sans-serif" font-size="11" lengthAdjust="spacing" textLength="50" x="1516.61" y="392.7393">title: String</text><text fill="#000000" font-family="sans-serif" font-size="11" lengthAdjust="spacing" textLength="60" x="1516.61" y="406.5752">name: String</text><text fill="#000000" font-family="sans-serif" font-size="11" lengthAdjust="spacing" textLength="53" x="1516.61" y="420.4111">body: Json</text><line style="stroke:#A80036;stroke-width:1.5;" x1="1511.61" x2="1626.61" y1="426.8281" y2="426.8281"/><!--MD5=[75dd49aed7830c8ad847ac958abda795]
class NewsCategory--><rect codeLine="164" fill="#FEFECE" filter="url(#frjv0ummat2mf)" height="117.1797" id="NewsCategory" style="stroke:#A80036;stroke-width:1.5;" width="117" x="1358.61" y="297.1406"/><ellipse cx="1375.41" cy="313.1406" fill="#ADD1B2" rx="11" ry="11" style="stroke:#A80036;stroke-width:1.0;"/><path d="M1378.1756,309.0156 Q1378.3319,308.7969 1378.5194,308.6875 Q1378.7069,308.5781 1378.9256,308.5781 Q1379.3006,308.5781 1379.535,308.8359 Q1379.7694,309.0938 1379.7694,309.7031 L1379.7694,311.1563 Q1379.7694,311.7656 1379.535,312.0313 Q1379.3006,312.2969 1378.9256,312.2969 Q1378.5819,312.2969 1378.3787,312.0938 Q1378.1756,311.9063 1378.0662,311.3906 Q1378.0194,311.0313 1377.8319,310.8438 Q1377.5037,310.4688 1376.8944,310.25 Q1376.285,310.0313 1375.66,310.0313 Q1374.8944,310.0313 1374.2616,310.3594 Q1373.6287,310.6875 1373.1366,311.4375 Q1372.6444,312.1875 1372.6444,313.2188 L1372.6444,314.3125 Q1372.6444,315.5469 1373.535,316.3672 Q1374.4256,317.1875 1376.0194,317.1875 Q1376.9569,317.1875 1377.6131,316.9375 Q1378.0037,316.7813 1378.4256,316.3438 Q1378.6912,316.0781 1378.8397,316 Q1378.9881,315.9219 1379.1912,315.9219 Q1379.5194,315.9219 1379.7772,316.1797 Q1380.035,316.4375 1380.035,316.7813 Q1380.035,317.125 1379.6912,317.5313 Q1379.1912,318.1094 1378.3944,318.4375 Q1377.3162,318.8906 1376.0194,318.8906 Q1374.5037,318.8906 1373.3006,318.2656 Q1372.3162,317.7656 1371.6287,316.6953 Q1370.9412,315.625 1370.9412,314.3438 L1370.9412,313.1875 Q1370.9412,311.8594 1371.5584,310.7109 Q1372.1756,309.5625 1373.2694,308.9453 Q1374.3631,308.3281 1375.5975,308.3281 Q1376.3319,308.3281 1376.9803,308.4922 Q1377.6287,308.6563 1378.1756,309.0156 Z " fill="#000000"/><text fill="#000000" font-family="sans-serif" font-size="12" lengthAdjust="spacing" textLength="81" x="1389.81" y="318.0508">NewsCategory</text><line style="stroke:#A80036;stroke-width:1.5;" x1="1359.61" x2="1474.61" y1="329.1406" y2="329.1406"/><text fill="#000000" font-family="sans-serif" font-size="11" lengthAdjust="spacing" textLength="47" x="1364.61" y="344.5596">id: Integer</text><text fill="#000000" font-family="sans-serif" font-size="11" lengthAdjust="spacing" textLength="70" x="1364.61" y="358.3955">site_id: Integer</text><text fill="#000000" font-family="sans-serif" font-size="11" lengthAdjust="spacing" textLength="105" x="1364.61" y="372.2314">is_published: Boolean</text><text fill="#000000" font-family="sans-serif" font-size="11" lengthAdjust="spacing" textLength="50" x="1364.61" y="386.0674">title: String</text><text fill="#000000" font-family="sans-serif" font-size="11" lengthAdjust="spacing" textLength="87" x="1364.61" y="399.9033">description: String</text><line style="stroke:#A80036;stroke-width:1.5;" x1="1359.61" x2="1474.61" y1="406.3203" y2="406.3203"/><!--MD5=[cbaac4eed5b318c44b2ea50495fa77ea]
class News--><rect codeLine="173" fill="#FEFECE" filter="url(#frjv0ummat2mf)" height="131.0156" id="News" style="stroke:#A80036;stroke-width:1.5;" width="117" x="1358.61" y="64.6406"/><ellipse cx="1397.46" cy="80.6406" fill="#ADD1B2" rx="11" ry="11" style="stroke:#A80036;stroke-width:1.0;"/><path d="M1400.2256,76.5156 Q1400.3819,76.2969 1400.5694,76.1875 Q1400.7569,76.0781 1400.9756,76.0781 Q1401.3506,76.0781 1401.585,76.3359 Q1401.8194,76.5938 1401.8194,77.2031 L1401.8194,78.6563 Q1401.8194,79.2656 1401.585,79.5313 Q1401.3506,79.7969 1400.9756,79.7969 Q1400.6319,79.7969 1400.4287,79.5938 Q1400.2256,79.4063 1400.1162,78.8906 Q1400.0694,78.5313 1399.8819,78.3438 Q1399.5537,77.9688 1398.9444,77.75 Q1398.335,77.5313 1397.71,77.5313 Q1396.9444,77.5313 1396.3116,77.8594 Q1395.6787,78.1875 1395.1866,78.9375 Q1394.6944,79.6875 1394.6944,80.7188 L1394.6944,81.8125 Q1394.6944,83.0469 1395.585,83.8672 Q1396.4756,84.6875 1398.0694,84.6875 Q1399.0069,84.6875 1399.6631,84.4375 Q1400.0537,84.2813 1400.4756,83.8438 Q1400.7412,83.5781 1400.8897,83.5 Q1401.0381,83.4219 1401.2412,83.4219 Q1401.5694,83.4219 1401.8272,83.6797 Q1402.085,83.9375 1402.085,84.2813 Q1402.085,84.625 1401.7412,85.0313 Q1401.2412,85.6094 1400.4444,85.9375 Q1399.3662,86.3906 1398.0694,86.3906 Q1396.5537,86.3906 1395.3506,85.7656 Q1394.3662,85.2656 1393.6787,84.1953 Q1392.9912,83.125 1392.9912,81.8438 L1392.9912,80.6875 Q1392.9912,79.3594 1393.6084,78.2109 Q1394.2256,77.0625 1395.3194,76.4453 Q1396.4131,75.8281 1397.6475,75.8281 Q1398.3819,75.8281 1399.0303,75.9922 Q1399.6787,76.1563 1400.2256,76.5156 Z " fill="#000000"/><text fill="#000000" font-family="sans-serif" font-size="12" lengthAdjust="spacing" textLength="32" x="1416.76" y="85.5508">News</text><line style="stroke:#A80036;stroke-width:1.5;" x1="1359.61" x2="1474.61" y1="96.6406" y2="96.6406"/><text fill="#000000" font-family="sans-serif" font-size="11" lengthAdjust="spacing" textLength="47" x="1364.61" y="112.0596">id: Integer</text><text fill="#000000" font-family="sans-serif" font-size="11" lengthAdjust="spacing" textLength="105" x="1364.61" y="125.8955">is_published: Boolean</text><text fill="#000000" font-family="sans-serif" font-size="11" lengthAdjust="spacing" textLength="101" x="1364.61" y="139.7314">date_published: Date</text><text fill="#000000" font-family="sans-serif" font-size="11" lengthAdjust="spacing" textLength="50" x="1364.61" y="153.5674">title: String</text><text fill="#000000" font-family="sans-serif" font-size="11" lengthAdjust="spacing" textLength="87" x="1364.61" y="167.4033">description: String</text><text fill="#000000" font-family="sans-serif" font-size="11" lengthAdjust="spacing" textLength="53" x="1364.61" y="181.2393">body: Json</text><line style="stroke:#A80036;stroke-width:1.5;" x1="1359.61" x2="1474.61" y1="187.6563" y2="187.6563"/><!--MD5=[fa31f0ba2af7efca475efd8927128e25]
class PhotoAlbums--><rect codeLine="183" fill="#FEFECE" filter="url(#frjv0ummat2mf)" height="117.1797" id="PhotoAlbums" style="stroke:#A80036;stroke-width:1.5;" width="117" x="1206.61" y="297.1406"/><ellipse cx="1226.56" cy="313.1406" fill="#ADD1B2" rx="11" ry="11" style="stroke:#A80036;stroke-width:1.0;"/><path d="M1229.3256,309.0156 Q1229.4819,308.7969 1229.6694,308.6875 Q1229.8569,308.5781 1230.0756,308.5781 Q1230.4506,308.5781 1230.685,308.8359 Q1230.9194,309.0938 1230.9194,309.7031 L1230.9194,311.1563 Q1230.9194,311.7656 1230.685,312.0313 Q1230.4506,312.2969 1230.0756,312.2969 Q1229.7319,312.2969 1229.5288,312.0938 Q1229.3256,311.9063 1229.2163,311.3906 Q1229.1694,311.0313 1228.9819,310.8438 Q1228.6538,310.4688 1228.0444,310.25 Q1227.435,310.0313 1226.81,310.0313 Q1226.0444,310.0313 1225.4116,310.3594 Q1224.7788,310.6875 1224.2866,311.4375 Q1223.7944,312.1875 1223.7944,313.2188 L1223.7944,314.3125 Q1223.7944,315.5469 1224.685,316.3672 Q1225.5756,317.1875 1227.1694,317.1875 Q1228.1069,317.1875 1228.7631,316.9375 Q1229.1538,316.7813 1229.5756,316.3438 Q1229.8413,316.0781 1229.9897,316 Q1230.1381,315.9219 1230.3413,315.9219 Q1230.6694,315.9219 1230.9272,316.1797 Q1231.185,316.4375 1231.185,316.7813 Q1231.185,317.125 1230.8413,317.5313 Q1230.3413,318.1094 1229.5444,318.4375 Q1228.4663,318.8906 1227.1694,318.8906 Q1225.6538,318.8906 1224.4506,318.2656 Q1223.4663,317.7656 1222.7788,316.6953 Q1222.0913,315.625 1222.0913,314.3438 L1222.0913,313.1875 Q1222.0913,311.8594 1222.7084,310.7109 Q1223.3256,309.5625 1224.4194,308.9453 Q1225.5131,308.3281 1226.7475,308.3281 Q1227.4819,308.3281 1228.1303,308.4922 Q1228.7788,308.6563 1229.3256,309.0156 Z " fill="#000000"/><text fill="#000000" font-family="sans-serif" font-size="12" lengthAdjust="spacing" textLength="74" x="1241.66" y="318.0508">PhotoAlbums</text><line style="stroke:#A80036;stroke-width:1.5;" x1="1207.61" x2="1322.61" y1="329.1406" y2="329.1406"/><text fill="#000000" font-family="sans-serif" font-size="11" lengthAdjust="spacing" textLength="47" x="1212.61" y="344.5596">id: Integer</text><text fill="#000000" font-family="sans-serif" font-size="11" lengthAdjust="spacing" textLength="70" x="1212.61" y="358.3955">site_id: Integer</text><text fill="#000000" font-family="sans-serif" font-size="11" lengthAdjust="spacing" textLength="60" x="1212.61" y="372.2314">name: String</text><text fill="#000000" font-family="sans-serif" font-size="11" lengthAdjust="spacing" textLength="105" x="1212.61" y="386.0674">is_published: Boolean</text><text fill="#000000" font-family="sans-serif" font-size="11" lengthAdjust="spacing" textLength="87" x="1212.61" y="399.9033">description: String</text><line style="stroke:#A80036;stroke-width:1.5;" x1="1207.61" x2="1322.61" y1="406.3203" y2="406.3203"/><!--MD5=[a805b40f8193e3b705560a3818c5c109]
class Photo--><rect codeLine="193" fill="#FEFECE" filter="url(#frjv0ummat2mf)" height="75.6719" id="Photo" style="stroke:#A80036;stroke-width:1.5;" width="99" x="1215.61" y="92.1406"/><ellipse cx="1246.36" cy="108.1406" fill="#ADD1B2" rx="11" ry="11" style="stroke:#A80036;stroke-width:1.0;"/><path d="M1249.1256,104.0156 Q1249.2819,103.7969 1249.4694,103.6875 Q1249.6569,103.5781 1249.8756,103.5781 Q1250.2506,103.5781 1250.485,103.8359 Q1250.7194,104.0938 1250.7194,104.7031 L1250.7194,106.1563 Q1250.7194,106.7656 1250.485,107.0313 Q1250.2506,107.2969 1249.8756,107.2969 Q1249.5319,107.2969 1249.3288,107.0938 Q1249.1256,106.9063 1249.0163,106.3906 Q1248.9694,106.0313 1248.7819,105.8438 Q1248.4538,105.4688 1247.8444,105.25 Q1247.235,105.0313 1246.61,105.0313 Q1245.8444,105.0313 1245.2116,105.3594 Q1244.5788,105.6875 1244.0866,106.4375 Q1243.5944,107.1875 1243.5944,108.2188 L1243.5944,109.3125 Q1243.5944,110.5469 1244.485,111.3672 Q1245.3756,112.1875 1246.9694,112.1875 Q1247.9069,112.1875 1248.5631,111.9375 Q1248.9538,111.7813 1249.3756,111.3438 Q1249.6413,111.0781 1249.7897,111 Q1249.9381,110.9219 1250.1413,110.9219 Q1250.4694,110.9219 1250.7272,111.1797 Q1250.985,111.4375 1250.985,111.7813 Q1250.985,112.125 1250.6413,112.5313 Q1250.1413,113.1094 1249.3444,113.4375 Q1248.2663,113.8906 1246.9694,113.8906 Q1245.4538,113.8906 1244.2506,113.2656 Q1243.2663,112.7656 1242.5788,111.6953 Q1241.8913,110.625 1241.8913,109.3438 L1241.8913,108.1875 Q1241.8913,106.8594 1242.5084,105.7109 Q1243.1256,104.5625 1244.2194,103.9453 Q1245.3131,103.3281 1246.5475,103.3281 Q1247.2819,103.3281 1247.9303,103.4922 Q1248.5788,103.6563 1249.1256,104.0156 Z " fill="#000000"/><text fill="#000000" font-family="sans-serif" font-size="12" lengthAdjust="spacing" textLength="32" x="1263.86" y="113.0508">Photo</text><line style="stroke:#A80036;stroke-width:1.5;" x1="1216.61" x2="1313.61" y1="124.1406" y2="124.1406"/><text fill="#000000" font-family="sans-serif" font-size="11" lengthAdjust="spacing" textLength="47" x="1221.61" y="139.5596">id: Integer</text><text fill="#000000" font-family="sans-serif" font-size="11" lengthAdjust="spacing" textLength="87" x="1221.61" y="153.3955">description: String</text><line style="stroke:#A80036;stroke-width:1.5;" x1="1216.61" x2="1313.61" y1="159.8125" y2="159.8125"/><!--MD5=[e3ca12a4a94b20b88f1f87da07a3c41a]
entity EducationGroupAPI--><ellipse cx="901.11" cy="1019.1406" fill="#FEFECE" filter="url(#frjv0ummat2mf)" rx="8" ry="8" style="stroke:#A80036;stroke-width:1.5;"/><text fill="#000000" font-family="sans-serif" font-size="14" lengthAdjust="spacing" textLength="124" x="839.11" y="1050.6738">EducationGroupAPI</text><!--MD5=[7a69a15ed95c96053fbf393d44dbf1fa]
entity EducationLessonAPI--><ellipse cx="437.11" cy="1019.1406" fill="#FEFECE" filter="url(#frjv0ummat2mf)" rx="8" ry="8" style="stroke:#A80036;stroke-width:1.5;"/><text fill="#000000" font-family="sans-serif" font-size="14" lengthAdjust="spacing" textLength="130" x="372.11" y="1050.6738">EducationLessonAPI</text><!--MD5=[f48dcf2501dd285eee32de3d573091fd]
reverse link Audience to Campus--><path codeLine="44" d="M280.18,653.4106 C282.37,694.1706 285.24,747.7506 287.13,783.0306 " fill="none" id="Audience-backto-Campus" style="stroke:#A80036;stroke-width:1.0;"/><polygon fill="#A80036" points="279.49,640.4006,275.8191,646.6075,280.1366,652.3832,283.8075,646.1764,279.49,640.4006" style="stroke:#A80036;stroke-width:1.0;"/><!--MD5=[2d4aac607423ef38bf0e2b978b8f6335]
reverse link Department to Faculty--><path codeLine="45" d="M140.36,646.4806 C142.1,685.3506 144.47,738.6206 146.14,775.8706 " fill="none" id="Department-backto-Faculty" style="stroke:#A80036;stroke-width:1.0;"/><polygon fill="#A80036" points="139.78,633.3806,136.0544,639.5548,140.3207,645.3684,144.0463,639.1943,139.78,633.3806" style="stroke:#A80036;stroke-width:1.0;"/><!--MD5=[475c44d24c798df6dd11ffbd005db7bb]
reverse link Faculty to LevelEducation--><path codeLine="46" d="M148.11,879.6906 C148.11,912.4306 148.11,952.4906 148.11,981.0806 " fill="none" id="Faculty-backto-LevelEducation" style="stroke:#A80036;stroke-width:1.0;"/><polygon fill="#A80036" points="148.11,866.6206,144.11,872.6206,148.11,878.6206,152.11,872.6206,148.11,866.6206" style="stroke:#A80036;stroke-width:1.0;"/><!--MD5=[95db05b050baef27771ec21d480edb9f]
reverse link User to UserRole--><path codeLine="79" d="M966.4,468.7706 C960.22,500.6606 953.92,533.2006 949.28,557.1306 " fill="none" id="User-backto-UserRole" style="stroke:#A80036;stroke-width:1.0;"/><polygon fill="#A80036" points="968.94,455.6406,963.8719,460.7703,966.6577,467.4216,971.7258,462.2919,968.94,455.6406" style="stroke:#A80036;stroke-width:1.0;"/><!--MD5=[4be746e49ad159f61bc3b90ad0a52a1d]
link User to UserPermissions--><path codeLine="80" d="M1033.0838,466.7512 C1033.0838,466.7512 1065.4662,546.0201 1065.4662,546.0201 " fill="none" id="User-UserPermissions" style="stroke:#A80036;stroke-width:1.0;"/><polygon fill="#A80036" points="1070,557.1306,1071.4366,550.0641,1065.4662,546.0201,1064.0296,553.0866,1070,557.1306" style="stroke:#A80036;stroke-width:1.0;"/><polygon fill="#A80036" points="1028.55,455.6406,1027.1134,462.7072,1033.0838,466.7512,1034.5204,459.6846,1028.55,455.6406" style="stroke:#A80036;stroke-width:1.0;"/><!--MD5=[4870be6589c29aff45208f7b5b4da2df]
reverse link Lesson to LessonType--><path codeLine="119" d="M682.3,918.8706 C693.13,935.7206 703.99,952.6106 713.61,967.5706 " fill="none" id="Lesson-backto-LessonType" style="stroke:#A80036;stroke-width:1.0;"/><polygon fill="#A80036" points="675.2,907.8206,675.0813,915.0307,681.6911,917.9135,681.8098,910.7034,675.2,907.8206" style="stroke:#A80036;stroke-width:1.0;"/><!--MD5=[ba326cfc4d82732bdeca332feef510d3]
reverse link Lesson to Week--><path codeLine="120" d="M611.54,921.0206 C609.92,939.6406 608.31,958.2206 606.94,974.0706 " fill="none" id="Lesson-backto-Week" style="stroke:#A80036;stroke-width:1.0;"/><polygon fill="#A80036" points="612.68,907.8206,608.1739,913.4505,611.6376,919.7753,616.1437,914.1454,612.68,907.8206" style="stroke:#A80036;stroke-width:1.0;"/><!--MD5=[8d1f658fc1cce5bbfb9351c13b57d9ed]
reverse link Week to DayWeek--><path codeLine="121" d="M603.11,1077.6206 C603.11,1095.3506 603.11,1114.4006 603.11,1130.3806 " fill="none" id="Week-backto-DayWeek" style="stroke:#A80036;stroke-width:1.0;"/><polygon fill="#A80036" points="603.11,1064.3906,599.11,1070.3906,603.11,1076.3906,607.11,1070.3906,603.11,1064.3906" style="stroke:#A80036;stroke-width:1.0;"/><!--MD5=[a40ddf52e1fec4ce097b61d111b8eef5]
reverse link News to NewsCategory--><path codeLine="199" d="M1417.11,208.8306 C1417.11,237.7906 1417.11,270.1406 1417.11,296.9906 " fill="none" id="News-backto-NewsCategory" style="stroke:#A80036;stroke-width:1.0;"/><polygon fill="#A80036" points="1417.11,195.7906,1413.11,201.7906,1417.11,207.7906,1421.11,201.7906,1417.11,195.7906" style="stroke:#A80036;stroke-width:1.0;"/><!--MD5=[da17cd43bb6c3c0f6736b623159339d7]
reverse link NewsCategory to Site--><path codeLine="200" d="M1388.58,426.5106 C1377.19,454.4006 1364.01,486.6606 1352.28,515.3806 " fill="none" id="NewsCategory-backto-Site" style="stroke:#A80036;stroke-width:1.0;"/><polygon fill="#A80036" points="1393.51,414.4406,1387.5396,418.4846,1388.9762,425.5512,1394.9466,421.5072,1393.51,414.4406" style="stroke:#A80036;stroke-width:1.0;"/><!--MD5=[83e37767c3184557b22fc6b8fe3e29c3]
reverse link Photo to PhotoAlbums--><path codeLine="201" d="M1265.11,181.7506 C1265.11,215.9506 1265.11,261.1806 1265.11,296.8106 " fill="none" id="Photo-backto-PhotoAlbums" style="stroke:#A80036;stroke-width:1.0;"/><polygon fill="#A80036" points="1265.11,168.3006,1261.11,174.3006,1265.11,180.3006,1269.11,174.3006,1265.11,168.3006" style="stroke:#A80036;stroke-width:1.0;"/><!--MD5=[512d30726fa2815d631de83ba0b8330a]
reverse link PhotoAlbums to Site--><path codeLine="202" d="M1281.47,427.2606 C1287.89,454.9806 1295.28,486.9206 1301.88,515.3806 " fill="none" id="PhotoAlbums-backto-Site" style="stroke:#A80036;stroke-width:1.0;"/><polygon fill="#A80036" points="1278.5,414.4406,1275.9627,421.1906,1281.2176,426.1289,1283.7549,419.3789,1278.5,414.4406" style="stroke:#A80036;stroke-width:1.0;"/><!--MD5=[9b8327147c8be9221472501a0d3f4066]
reverse link Site to Theme--><path codeLine="203" d="M1343,687.7006 C1350.62,718.1606 1358.76,750.7106 1365.06,775.9206 " fill="none" id="Site-backto-Theme" style="stroke:#A80036;stroke-width:1.0;"/><polygon fill="#A80036" points="1339.78,674.8006,1337.3492,681.5897,1342.6811,686.4447,1345.1119,679.6556,1339.78,674.8006" style="stroke:#A80036;stroke-width:1.0;"/><!--MD5=[3ceac8e926511ac7cef118ecfe8f7317]
reverse link Site to SiteType--><path codeLine="204" d="M1293.61,687.4906 C1283.89,720.9806 1273.43,757.0306 1265.87,783.0906 " fill="none" id="Site-backto-SiteType" style="stroke:#A80036;stroke-width:1.0;"/><polygon fill="#A80036" points="1297.29,674.8006,1291.7794,679.4518,1293.9533,686.3274,1299.4639,681.6762,1297.29,674.8006" style="stroke:#A80036;stroke-width:1.0;"/><!--MD5=[bffd851b655ea0dcb015151fff425f42]
reverse link Page to Site--><path codeLine="205" d="M1503.08,445.0106 C1499.79,448.6706 1496.46,452.2306 1493.11,455.6406 C1457.97,491.5006 1413.71,526.7906 1378.75,552.7806 " fill="none" id="Page-backto-Site" style="stroke:#A80036;stroke-width:1.0;"/><polygon fill="#A80036" points="1511.71,435.1506,1504.7492,437.0342,1503.8107,444.184,1510.7715,442.3004,1511.71,435.1506" style="stroke:#A80036;stroke-width:1.0;"/><!--MD5=[b7bf904c4e99824c5990e5285ae3ac25]
reverse link Page to Page--><path codeLine="206" d="M1641.15,316.2306 C1653.8,321.4506 1662.61,334.5906 1662.61,355.6406 C1662.61,383.4206 1647.27,397.4206 1628.01,397.6406 " fill="none" id="Page-backto-Page" style="stroke:#A80036;stroke-width:1.0;"/><polygon fill="#A80036" points="1628.01,313.6406,1633.1288,318.7198,1639.786,315.9484,1634.6672,310.8692,1628.01,313.6406" style="stroke:#A80036;stroke-width:1.0;"/><!--MD5=[22cc2cc7d034490518c4340a24de461b]
reverse link User to Department--><path codeLine="209" d="M886.47,366.8306 C701.12,386.8906 316.91,435.7606 204.11,506.1406 C184.51,518.3706 168.69,538.7006 157.46,556.7406 " fill="none" id="User-backto-Department" style="stroke:#A80036;stroke-width:1.0;"/><polygon fill="#A80036" points="899.46,365.4306,893.0679,362.0928,887.5283,366.7095,893.9205,370.0473,899.46,365.4306" style="stroke:#A80036;stroke-width:1.0;"/><!--MD5=[9b35ac46e696236b8e4e38cd4fcaaa68]
reverse link User to Faculty--><path codeLine="210" d="M886.22,357.4306 C669.83,361.5006 175.74,384.2306 72.11,506.1406 C6,583.9206 72.31,709.8106 116.16,776.0906 " fill="none" id="User-backto-Faculty" style="stroke:#A80036;stroke-width:1.0;"/><polygon fill="#A80036" points="899.44,357.2006,893.3706,353.3067,887.4419,357.4116,893.5112,361.3055,899.44,357.2006" style="stroke:#A80036;stroke-width:1.0;"/><!--MD5=[f4f3388a5ac538da1147dcc2a76b9ed4]
reverse link User to EducationGroupAPI--><path codeLine="211" d="M899.01,467.2806 C892.19,479.8506 886.33,492.9106 882.11,506.1406 C819.75,701.9206 885.4,961.2606 898.82,1010.0506 " fill="none" id="User-backto-EducationGroupAPI" style="stroke:#A80036;stroke-width:1.0;"/><polygon fill="#A80036" points="905.52,455.8806,899.0715,459.1082,899.5706,466.302,906.0191,463.0744,905.52,455.8806" style="stroke:#A80036;stroke-width:1.0;"/><!--MD5=[ad32a72abeca72a8dba9638555757e11]
reverse link User to Site--><path codeLine="212" d="M1087.45,427.7006 C1144.14,468.2506 1213.27,517.7106 1261.38,552.1306 " fill="none" id="User-backto-Site" style="stroke:#A80036;stroke-width:1.0;"/><polygon fill="#A80036" points="1076.65,419.9706,1079.1988,426.7162,1086.4059,426.9579,1083.8571,420.2123,1076.65,419.9706" style="stroke:#A80036;stroke-width:1.0;"/><!--MD5=[31f975cf27b9bea74a9b8ef392aefcf6]
reverse link Lesson to EducationLessonAPI--><path codeLine="214" d="M535.82,912.4206 C498.97,951.8906 460.55,993.0406 444.67,1010.0506 " fill="none" id="Lesson-backto-EducationLessonAPI" style="stroke:#A80036;stroke-width:1.0;"/><polygon fill="#A80036" points="544.89,902.7106,537.8714,904.3658,536.6998,911.4811,543.7184,909.8259,544.89,902.7106" style="stroke:#A80036;stroke-width:1.0;"/><!--MD5=[826eabd11f54e185c4926296b14d56c6]
reverse link Lesson to EducationGroupAPI--><path codeLine="215" d="M706.22,882.2006 C774.67,929.9506 863.51,991.9106 891.94,1011.7406 " fill="none" id="Lesson-backto-EducationGroupAPI" style="stroke:#A80036;stroke-width:1.0;"/><polygon fill="#A80036" points="695.42,874.6606,698.0549,881.3731,705.2644,881.5227,702.6296,874.8102,695.42,874.6606" style="stroke:#A80036;stroke-width:1.0;"/><!--MD5=[f649d3fcec61d5fb9f16b37ecc557548]
link Audience to Lesson--><path codeLine="216" d="M332.22,632.1306 C386.62,667.6506 470.6,722.5006 533.84,763.8006 " fill="none" id="Audience-to-Lesson" style="stroke:#A80036;stroke-width:1.0;"/><polygon fill="#A80036" points="545,771.0906,542.1597,764.4625,534.9489,764.535,537.7893,771.1632,545,771.0906" style="stroke:#A80036;stroke-width:1.0;"/><!--MD5=[94e318ed9039d05c8045c702b702e134]
@startuml university

title "Диаграмма классов "Сайт ВУЗа""

circle EducationGroupAPI
circle EducationLessonAPI

package "university - Структура университета" as university {
    ' Классы описывающие структуру университета

    enum LevelEducation {
        ' Уровень образования
        id: Integer
        name: String
    }

    class Faculty {
        ' Факультет
        id: Integer
        name: String
        level_education: Integer
    }

    class Department {
        ' Кафедра
        id: Integer
        name: String

    }

    class Campus {
        ' Корпус
        id: Integer
        address: String
    }

    class Audience {
        ' Аудитория
        id: Integer
        number: String
        extra_settings: Json
    }

    ' Объявление отношений подсистемы
    Audience *- - Campus
    Department *- - Faculty
    Faculty *- - LevelEducation
}

package "users - Пользователи" as users {

    enum UserRole {
        ' Пользовательские роли
        id: Integer
        name: String
    }

    enum UserPermissions {
        ' Пользовательские разрешения
        id: Integer
        name: String
    }

    class User{
        ' Пользователь
        id: Integer
        email: String
        password: String
        password_salt: String
        frontend_settings: Json
        last_name: String
        first_name: String
        second_name: String
        date_birth: Date
    }
    User : get_full_name() : string
    User : send_email(Mail mail_object) : void

    ' Объявление отношений подсистемы
    User *- - UserRole
    User *- -* UserPermissions
}

package "timetable - Расписание занятий" as timetable  {

    enum DayWeek {
        ' День Недели
        id: Integer
        name: String
    }

    class Week {
        ' Неделя
        id: Integer
        day_week_id: Integer
        is_even: Boolean
    }

    class LessonType {
        ' Тип занятия
        id: Integer
        order: Integer
        start_time: Time
        end_time: Time
    }

    class Lesson {
        ' Занятие
        id: Integer
        order: Integer
        lesson_type_id: Integer
        week_id: Integer
        audience_id: Interger
        teacher_id: Interger
        education_lesson_id: Integer
        education_group_id: Integer
        date: Date
    }

    Lesson *- - LessonType
    Lesson *- - Week
    Week *- - DayWeek
}

package "content - Контент сайта" as content {

    enum SiteType {
        ' Тип сайта
        id: Integer
        name: String
    }

    class Theme {
        ' Тема сайта
        id: Integer
        name: String
        is_main: Boolean
    }

    class Site {
        ' Сайт
        id: Integer
        theme_id: Integer
        is_published: Boolean
        description: String
        domain: String
        title: String
        name: String
        body: Json

    }

    class Page {
        ' Страница сайта
        id: Integer
        site_id: Integer
        is_published: Boolean
        self_id: Integer
        url: String
        title: String
        name: String
        body: Json
    }

    class NewsCategory {
        ' Категория новостей
        id: Integer
        site_id: Integer
        is_published: Boolean
        title: String
        description: String
    }

    class News {
        ' Новость
        id: Integer
        is_published: Boolean
        date_published: Date
        title: String
        description: String
        body: Json
    }

    class PhotoAlbums {
        ' Фото альбом
        id: Integer
        site_id: Integer
        name: String
        is_published: Boolean
        description: String

    }

    class Photo {
        ' Фото
        id: Integer
        description: String
    }

    News *- - NewsCategory
    NewsCategory *- - Site
    Photo *- - PhotoAlbums
    PhotoAlbums *- - Site
    Site *- - Theme
    Site *- - SiteType
    Page *- - Site
    Page *- - Page
}

User *- - Department
User *- - Faculty
User *- - EducationGroupAPI
User *- - Site

Lesson *- - EducationLessonAPI
Lesson *- - EducationGroupAPI
Lesson *-up- Audience

@enduml

@startuml university

title "Диаграмма классов "Сайт ВУЗа""

circle EducationGroupAPI
circle EducationLessonAPI

package "university - Структура университета" as university {

    enum LevelEducation {
        id: Integer
        name: String
    }

    class Faculty {
        id: Integer
        name: String
        level_education: Integer
    }

    class Department {
        id: Integer
        name: String

    }

    class Campus {
        id: Integer
        address: String
    }

    class Audience {
        id: Integer
        number: String
        extra_settings: Json
    }

    Audience *- - Campus
    Department *- - Faculty
    Faculty *- - LevelEducation
}

package "users - Пользователи" as users {

    enum UserRole {
        id: Integer
        name: String
    }

    enum UserPermissions {
        id: Integer
        name: String
    }

    class User{
        id: Integer
        email: String
        password: String
        password_salt: String
        frontend_settings: Json
        last_name: String
        first_name: String
        second_name: String
        date_birth: Date
    }
    User : get_full_name() : string
    User : send_email(Mail mail_object) : void

    User *- - UserRole
    User *- -* UserPermissions
}

package "timetable - Расписание занятий" as timetable  {

    enum DayWeek {
        id: Integer
        name: String
    }

    class Week {
        id: Integer
        day_week_id: Integer
        is_even: Boolean
    }

    class LessonType {
        id: Integer
        order: Integer
        start_time: Time
        end_time: Time
    }

    class Lesson {
        id: Integer
        order: Integer
        lesson_type_id: Integer
        week_id: Integer
        audience_id: Interger
        teacher_id: Interger
        education_lesson_id: Integer
        education_group_id: Integer
        date: Date
    }

    Lesson *- - LessonType
    Lesson *- - Week
    Week *- - DayWeek
}

package "content - Контент сайта" as content {

    enum SiteType {
        id: Integer
        name: String
    }

    class Theme {
        id: Integer
        name: String
        is_main: Boolean
    }

    class Site {
        id: Integer
        theme_id: Integer
        is_published: Boolean
        description: String
        domain: String
        title: String
        name: String
        body: Json

    }

    class Page {
        id: Integer
        site_id: Integer
        is_published: Boolean
        self_id: Integer
        url: String
        title: String
        name: String
        body: Json
    }

    class NewsCategory {
        id: Integer
        site_id: Integer
        is_published: Boolean
        title: String
        description: String
    }

    class News {
        id: Integer
        is_published: Boolean
        date_published: Date
        title: String
        description: String
        body: Json
    }

    class PhotoAlbums {
        id: Integer
        site_id: Integer
        name: String
        is_published: Boolean
        description: String

    }

    class Photo {
        id: Integer
        description: String
    }

    News *- - NewsCategory
    NewsCategory *- - Site
    Photo *- - PhotoAlbums
    PhotoAlbums *- - Site
    Site *- - Theme
    Site *- - SiteType
    Page *- - Site
    Page *- - Page
}

User *- - Department
User *- - Faculty
User *- - EducationGroupAPI
User *- - Site

Lesson *- - EducationLessonAPI
Lesson *- - EducationGroupAPI
Lesson *-up- Audience

@enduml

PlantUML version 1.2021.16(Wed Dec 08 20:25:22 MSK 2021)
(GPL source distribution)
Java Runtime: Java(TM) SE Runtime Environment
JVM: Java HotSpot(TM) 64-Bit Server VM
Default Encoding: Cp1251
Language: ru
Country: RU
--></g></svg>