<?xml version="1.0" encoding="UTF-8" standalone="no"?><svg xmlns="http://www.w3.org/2000/svg" xmlns:xlink="http://www.w3.org/1999/xlink" contentScriptType="application/ecmascript" contentStyleType="text/css" height="762px" preserveAspectRatio="none" style="width:460px;height:762px;background:#FFFFFF;" version="1.1" viewBox="0 0 460 762" width="460px" zoomAndPan="magnify"><defs><filter height="300%" id="fy687030z8vj6" width="300%" x="-1" y="-1"><feGaussianBlur result="blurOut" stdDeviation="2.0"/><feColorMatrix in="blurOut" result="blurOut2" type="matrix" values="0 0 0 0 0 0 0 0 0 0 0 0 0 0 0 0 0 0 .4 0"/><feOffset dx="4.0" dy="4.0" in="blurOut2" result="blurOut3"/><feBlend in="SourceGraphic" in2="blurOut3" mode="normal"/></filter></defs><g><text fill="#000000" font-family="sans-serif" font-size="18" lengthAdjust="spacing" textLength="349" x="49" y="18.6855">Диаграмма классов "Контент сайта ВУЗа"</text><!--MD5=[8423ce4c87698aa4203df2d57614ffc6]
class SiteType--><rect codeLine="5" fill="#FEFECE" filter="url(#fy687030z8vj6)" height="75.6719" id="SiteType" style="stroke:#A80036;stroke-width:1.5;" width="79" x="136" y="665.6406"/><ellipse cx="151" cy="681.6406" fill="#EB937F" rx="11" ry="11" style="stroke:#A80036;stroke-width:1.0;"/><path d="M149.8594,682.4375 L149.8594,684.9375 L154.1875,684.9375 L154.1875,684.0156 Q154.1875,683.4063 154.4219,683.1406 Q154.6719,682.875 155.0469,682.875 Q155.4219,682.875 155.6563,683.1406 Q155.8906,683.4063 155.8906,684.0156 L155.8906,686.6406 L147.8906,686.6406 Q147.2656,686.6406 147,686.4063 Q146.75,686.1719 146.75,685.7813 Q146.75,685.4063 147.0156,685.1719 Q147.2813,684.9375 147.8906,684.9375 L148.1563,684.9375 L148.1563,678.2813 L147.8906,678.2813 Q147.2656,678.2813 147,678.0469 Q146.75,677.8125 146.75,677.4219 Q146.75,677.0469 147,676.8125 Q147.2656,676.5781 147.8906,676.5781 L155.5156,676.5781 L155.5156,679.1719 Q155.5156,679.7813 155.2813,680.0469 Q155.0625,680.2969 154.6719,680.2969 Q154.2969,680.2969 154.0625,680.0469 Q153.8281,679.7813 153.8281,679.1719 L153.8281,678.2813 L149.8594,678.2813 L149.8594,680.7344 L151.3438,680.7344 Q151.3438,680.0781 151.4688,679.8906 Q151.7344,679.4844 152.2031,679.4844 Q152.5781,679.4844 152.8125,679.75 Q153.0469,680 153.0469,680.6094 L153.0469,682.5781 Q153.0469,683.125 152.9219,683.3125 Q152.6563,683.7031 152.2031,683.7031 Q151.7344,683.7031 151.4688,683.2969 Q151.3438,683.1094 151.3438,682.4375 L149.8594,682.4375 Z " fill="#000000"/><text fill="#000000" font-family="sans-serif" font-size="12" lengthAdjust="spacing" textLength="47" x="165" y="686.5508">SiteType</text><line style="stroke:#A80036;stroke-width:1.5;" x1="137" x2="214" y1="697.6406" y2="697.6406"/><text fill="#000000" font-family="sans-serif" font-size="11" lengthAdjust="spacing" textLength="47" x="142" y="713.0596">id: Integer</text><text fill="#000000" font-family="sans-serif" font-size="11" lengthAdjust="spacing" textLength="60" x="142" y="726.8955">name: String</text><line style="stroke:#A80036;stroke-width:1.5;" x1="137" x2="214" y1="733.3125" y2="733.3125"/><!--MD5=[bbad56bc7779fe6d833d77eae0c25c05]
class Theme--><rect codeLine="11" fill="#FEFECE" filter="url(#fy687030z8vj6)" height="89.5078" id="Theme" style="stroke:#A80036;stroke-width:1.5;" width="93" x="250" y="658.6406"/><ellipse cx="274.9" cy="674.6406" fill="#ADD1B2" rx="11" ry="11" style="stroke:#A80036;stroke-width:1.0;"/><path d="M277.6656,670.5156 Q277.8219,670.2969 278.0094,670.1875 Q278.1969,670.0781 278.4156,670.0781 Q278.7906,670.0781 279.025,670.3438 Q279.2594,670.5938 279.2594,671.2031 L279.2594,672.6563 Q279.2594,673.2656 279.025,673.5313 Q278.7906,673.7969 278.4156,673.7969 Q278.0719,673.7969 277.8688,673.5938 Q277.6656,673.4063 277.5563,672.8906 Q277.5094,672.5313 277.3219,672.3438 Q276.9938,671.9688 276.3844,671.75 Q275.775,671.5313 275.15,671.5313 Q274.3844,671.5313 273.7438,671.8594 Q273.1188,672.1875 272.6188,672.9375 Q272.1344,673.6875 272.1344,674.7188 L272.1344,675.8125 Q272.1344,677.0469 273.025,677.875 Q273.9156,678.6875 275.5094,678.6875 Q276.4469,678.6875 277.1031,678.4375 Q277.4938,678.2813 277.9156,677.8438 Q278.1813,677.5781 278.3219,677.5 Q278.4781,677.4219 278.6813,677.4219 Q279.0094,677.4219 279.2594,677.6875 Q279.525,677.9375 279.525,678.2813 Q279.525,678.625 279.1813,679.0313 Q278.6813,679.6094 277.8844,679.9375 Q276.8063,680.3906 275.5094,680.3906 Q273.9938,680.3906 272.7906,679.7656 Q271.8063,679.2656 271.1188,678.2031 Q270.4313,677.125 270.4313,675.8438 L270.4313,674.6875 Q270.4313,673.3594 271.0406,672.2188 Q271.6656,671.0625 272.7594,670.4531 Q273.8531,669.8281 275.0875,669.8281 Q275.8219,669.8281 276.4625,670 Q277.1188,670.1563 277.6656,670.5156 Z " fill="#000000"/><text fill="#000000" font-family="sans-serif" font-size="12" lengthAdjust="spacing" textLength="39" x="291.1" y="679.5508">Theme</text><line style="stroke:#A80036;stroke-width:1.5;" x1="251" x2="342" y1="690.6406" y2="690.6406"/><text fill="#000000" font-family="sans-serif" font-size="11" lengthAdjust="spacing" textLength="47" x="256" y="706.0596">id: Integer</text><text fill="#000000" font-family="sans-serif" font-size="11" lengthAdjust="spacing" textLength="60" x="256" y="719.8955">name: String</text><text fill="#000000" font-family="sans-serif" font-size="11" lengthAdjust="spacing" textLength="81" x="256" y="733.7314">is_main: Boolean</text><line style="stroke:#A80036;stroke-width:1.5;" x1="251" x2="342" y1="740.1484" y2="740.1484"/><!--MD5=[7eeb4b838a05227218a56e467b2beb72]
class Site--><rect codeLine="18" fill="#FEFECE" filter="url(#fy687030z8vj6)" height="158.6875" id="Site" style="stroke:#A80036;stroke-width:1.5;" width="117" x="177" y="439.6406"/><ellipse cx="220.8" cy="455.6406" fill="#ADD1B2" rx="11" ry="11" style="stroke:#A80036;stroke-width:1.0;"/><path d="M223.5656,451.5156 Q223.7219,451.2969 223.9094,451.1875 Q224.0969,451.0781 224.3156,451.0781 Q224.6906,451.0781 224.925,451.3438 Q225.1594,451.5938 225.1594,452.2031 L225.1594,453.6563 Q225.1594,454.2656 224.925,454.5313 Q224.6906,454.7969 224.3156,454.7969 Q223.9719,454.7969 223.7688,454.5938 Q223.5656,454.4063 223.4563,453.8906 Q223.4094,453.5313 223.2219,453.3438 Q222.8938,452.9688 222.2844,452.75 Q221.675,452.5313 221.05,452.5313 Q220.2844,452.5313 219.6438,452.8594 Q219.0188,453.1875 218.5188,453.9375 Q218.0344,454.6875 218.0344,455.7188 L218.0344,456.8125 Q218.0344,458.0469 218.925,458.875 Q219.8156,459.6875 221.4094,459.6875 Q222.3469,459.6875 223.0031,459.4375 Q223.3938,459.2813 223.8156,458.8438 Q224.0813,458.5781 224.2219,458.5 Q224.3781,458.4219 224.5813,458.4219 Q224.9094,458.4219 225.1594,458.6875 Q225.425,458.9375 225.425,459.2813 Q225.425,459.625 225.0813,460.0313 Q224.5813,460.6094 223.7844,460.9375 Q222.7063,461.3906 221.4094,461.3906 Q219.8938,461.3906 218.6906,460.7656 Q217.7063,460.2656 217.0188,459.2031 Q216.3313,458.125 216.3313,456.8438 L216.3313,455.6875 Q216.3313,454.3594 216.9406,453.2188 Q217.5656,452.0625 218.6594,451.4531 Q219.7531,450.8281 220.9875,450.8281 Q221.7219,450.8281 222.3625,451 Q223.0188,451.1563 223.5656,451.5156 Z " fill="#000000"/><text fill="#000000" font-family="sans-serif" font-size="12" lengthAdjust="spacing" textLength="21" x="241.2" y="460.5508">Site</text><line style="stroke:#A80036;stroke-width:1.5;" x1="178" x2="293" y1="471.6406" y2="471.6406"/><text fill="#000000" font-family="sans-serif" font-size="11" lengthAdjust="spacing" textLength="47" x="183" y="487.0596">id: Integer</text><text fill="#000000" font-family="sans-serif" font-size="11" lengthAdjust="spacing" textLength="82" x="183" y="500.8955">theme_id: Integer</text><text fill="#000000" font-family="sans-serif" font-size="11" lengthAdjust="spacing" textLength="105" x="183" y="514.7314">is_published: Boolean</text><text fill="#000000" font-family="sans-serif" font-size="11" lengthAdjust="spacing" textLength="87" x="183" y="528.5674">description: String</text><text fill="#000000" font-family="sans-serif" font-size="11" lengthAdjust="spacing" textLength="68" x="183" y="542.4033">domain: String</text><text fill="#000000" font-family="sans-serif" font-size="11" lengthAdjust="spacing" textLength="50" x="183" y="556.2393">title: String</text><text fill="#000000" font-family="sans-serif" font-size="11" lengthAdjust="spacing" textLength="60" x="183" y="570.0752">name: String</text><text fill="#000000" font-family="sans-serif" font-size="11" lengthAdjust="spacing" textLength="53" x="183" y="583.9111">body: Json</text><line style="stroke:#A80036;stroke-width:1.5;" x1="178" x2="293" y1="590.3281" y2="590.3281"/><!--MD5=[6a494c20d032ff54e1efa92c1369bc7b]
class Page--><rect codeLine="31" fill="#FEFECE" filter="url(#fy687030z8vj6)" height="158.6875" id="Page" style="stroke:#A80036;stroke-width:1.5;" width="117" x="7" y="220.6406"/><ellipse cx="47.2" cy="236.6406" fill="#ADD1B2" rx="11" ry="11" style="stroke:#A80036;stroke-width:1.0;"/><path d="M49.9656,232.5156 Q50.1219,232.2969 50.3094,232.1875 Q50.4969,232.0781 50.7156,232.0781 Q51.0906,232.0781 51.325,232.3438 Q51.5594,232.5938 51.5594,233.2031 L51.5594,234.6563 Q51.5594,235.2656 51.325,235.5313 Q51.0906,235.7969 50.7156,235.7969 Q50.3719,235.7969 50.1688,235.5938 Q49.9656,235.4063 49.8563,234.8906 Q49.8094,234.5313 49.6219,234.3438 Q49.2938,233.9688 48.6844,233.75 Q48.075,233.5313 47.45,233.5313 Q46.6844,233.5313 46.0438,233.8594 Q45.4188,234.1875 44.9188,234.9375 Q44.4344,235.6875 44.4344,236.7188 L44.4344,237.8125 Q44.4344,239.0469 45.325,239.875 Q46.2156,240.6875 47.8094,240.6875 Q48.7469,240.6875 49.4031,240.4375 Q49.7938,240.2813 50.2156,239.8438 Q50.4813,239.5781 50.6219,239.5 Q50.7781,239.4219 50.9813,239.4219 Q51.3094,239.4219 51.5594,239.6875 Q51.825,239.9375 51.825,240.2813 Q51.825,240.625 51.4813,241.0313 Q50.9813,241.6094 50.1844,241.9375 Q49.1063,242.3906 47.8094,242.3906 Q46.2938,242.3906 45.0906,241.7656 Q44.1063,241.2656 43.4188,240.2031 Q42.7313,239.125 42.7313,237.8438 L42.7313,236.6875 Q42.7313,235.3594 43.3406,234.2188 Q43.9656,233.0625 45.0594,232.4531 Q46.1531,231.8281 47.3875,231.8281 Q48.1219,231.8281 48.7625,232 Q49.4188,232.1563 49.9656,232.5156 Z " fill="#000000"/><text fill="#000000" font-family="sans-serif" font-size="12" lengthAdjust="spacing" textLength="29" x="66.8" y="241.5508">Page</text><line style="stroke:#A80036;stroke-width:1.5;" x1="8" x2="123" y1="252.6406" y2="252.6406"/><text fill="#000000" font-family="sans-serif" font-size="11" lengthAdjust="spacing" textLength="47" x="13" y="268.0596">id: Integer</text><text fill="#000000" font-family="sans-serif" font-size="11" lengthAdjust="spacing" textLength="70" x="13" y="281.8955">site_id: Integer</text><text fill="#000000" font-family="sans-serif" font-size="11" lengthAdjust="spacing" textLength="105" x="13" y="295.7314">is_published: Boolean</text><text fill="#000000" font-family="sans-serif" font-size="11" lengthAdjust="spacing" textLength="71" x="13" y="309.5674">self_id: Integer</text><text fill="#000000" font-family="sans-serif" font-size="11" lengthAdjust="spacing" textLength="46" x="13" y="323.4033">url: String</text><text fill="#000000" font-family="sans-serif" font-size="11" lengthAdjust="spacing" textLength="50" x="13" y="337.2393">title: String</text><text fill="#000000" font-family="sans-serif" font-size="11" lengthAdjust="spacing" textLength="60" x="13" y="351.0752">name: String</text><text fill="#000000" font-family="sans-serif" font-size="11" lengthAdjust="spacing" textLength="53" x="13" y="364.9111">body: Json</text><line style="stroke:#A80036;stroke-width:1.5;" x1="8" x2="123" y1="371.3281" y2="371.3281"/><!--MD5=[75dd49aed7830c8ad847ac958abda795]
class NewsCategory--><rect codeLine="43" fill="#FEFECE" filter="url(#fy687030z8vj6)" height="117.1797" id="NewsCategory" style="stroke:#A80036;stroke-width:1.5;" width="117" x="177" y="241.6406"/><ellipse cx="193.8" cy="257.6406" fill="#ADD1B2" rx="11" ry="11" style="stroke:#A80036;stroke-width:1.0;"/><path d="M196.5656,253.5156 Q196.7219,253.2969 196.9094,253.1875 Q197.0969,253.0781 197.3156,253.0781 Q197.6906,253.0781 197.925,253.3438 Q198.1594,253.5938 198.1594,254.2031 L198.1594,255.6563 Q198.1594,256.2656 197.925,256.5313 Q197.6906,256.7969 197.3156,256.7969 Q196.9719,256.7969 196.7688,256.5938 Q196.5656,256.4063 196.4563,255.8906 Q196.4094,255.5313 196.2219,255.3438 Q195.8938,254.9688 195.2844,254.75 Q194.675,254.5313 194.05,254.5313 Q193.2844,254.5313 192.6438,254.8594 Q192.0188,255.1875 191.5188,255.9375 Q191.0344,256.6875 191.0344,257.7188 L191.0344,258.8125 Q191.0344,260.0469 191.925,260.875 Q192.8156,261.6875 194.4094,261.6875 Q195.3469,261.6875 196.0031,261.4375 Q196.3938,261.2813 196.8156,260.8438 Q197.0813,260.5781 197.2219,260.5 Q197.3781,260.4219 197.5813,260.4219 Q197.9094,260.4219 198.1594,260.6875 Q198.425,260.9375 198.425,261.2813 Q198.425,261.625 198.0813,262.0313 Q197.5813,262.6094 196.7844,262.9375 Q195.7063,263.3906 194.4094,263.3906 Q192.8938,263.3906 191.6906,262.7656 Q190.7063,262.2656 190.0188,261.2031 Q189.3313,260.125 189.3313,258.8438 L189.3313,257.6875 Q189.3313,256.3594 189.9406,255.2188 Q190.5656,254.0625 191.6594,253.4531 Q192.7531,252.8281 193.9875,252.8281 Q194.7219,252.8281 195.3625,253 Q196.0188,253.1563 196.5656,253.5156 Z " fill="#000000"/><text fill="#000000" font-family="sans-serif" font-size="12" lengthAdjust="spacing" textLength="81" x="208.2" y="262.5508">NewsCategory</text><line style="stroke:#A80036;stroke-width:1.5;" x1="178" x2="293" y1="273.6406" y2="273.6406"/><text fill="#000000" font-family="sans-serif" font-size="11" lengthAdjust="spacing" textLength="47" x="183" y="289.0596">id: Integer</text><text fill="#000000" font-family="sans-serif" font-size="11" lengthAdjust="spacing" textLength="70" x="183" y="302.8955">site_id: Integer</text><text fill="#000000" font-family="sans-serif" font-size="11" lengthAdjust="spacing" textLength="105" x="183" y="316.7314">is_published: Boolean</text><text fill="#000000" font-family="sans-serif" font-size="11" lengthAdjust="spacing" textLength="50" x="183" y="330.5674">title: String</text><text fill="#000000" font-family="sans-serif" font-size="11" lengthAdjust="spacing" textLength="87" x="183" y="344.4033">description: String</text><line style="stroke:#A80036;stroke-width:1.5;" x1="178" x2="293" y1="350.8203" y2="350.8203"/><!--MD5=[cbaac4eed5b318c44b2ea50495fa77ea]
class News--><rect codeLine="52" fill="#FEFECE" filter="url(#fy687030z8vj6)" height="131.0156" id="News" style="stroke:#A80036;stroke-width:1.5;" width="117" x="177" y="29.6406"/><ellipse cx="215.85" cy="45.6406" fill="#ADD1B2" rx="11" ry="11" style="stroke:#A80036;stroke-width:1.0;"/><path d="M218.6156,41.5156 Q218.7719,41.2969 218.9594,41.1875 Q219.1469,41.0781 219.3656,41.0781 Q219.7406,41.0781 219.975,41.3438 Q220.2094,41.5938 220.2094,42.2031 L220.2094,43.6563 Q220.2094,44.2656 219.975,44.5313 Q219.7406,44.7969 219.3656,44.7969 Q219.0219,44.7969 218.8188,44.5938 Q218.6156,44.4063 218.5063,43.8906 Q218.4594,43.5313 218.2719,43.3438 Q217.9438,42.9688 217.3344,42.75 Q216.725,42.5313 216.1,42.5313 Q215.3344,42.5313 214.6938,42.8594 Q214.0688,43.1875 213.5688,43.9375 Q213.0844,44.6875 213.0844,45.7188 L213.0844,46.8125 Q213.0844,48.0469 213.975,48.875 Q214.8656,49.6875 216.4594,49.6875 Q217.3969,49.6875 218.0531,49.4375 Q218.4438,49.2813 218.8656,48.8438 Q219.1313,48.5781 219.2719,48.5 Q219.4281,48.4219 219.6313,48.4219 Q219.9594,48.4219 220.2094,48.6875 Q220.475,48.9375 220.475,49.2813 Q220.475,49.625 220.1313,50.0313 Q219.6313,50.6094 218.8344,50.9375 Q217.7563,51.3906 216.4594,51.3906 Q214.9438,51.3906 213.7406,50.7656 Q212.7563,50.2656 212.0688,49.2031 Q211.3813,48.125 211.3813,46.8438 L211.3813,45.6875 Q211.3813,44.3594 211.9906,43.2188 Q212.6156,42.0625 213.7094,41.4531 Q214.8031,40.8281 216.0375,40.8281 Q216.7719,40.8281 217.4125,41 Q218.0688,41.1563 218.6156,41.5156 Z " fill="#000000"/><text fill="#000000" font-family="sans-serif" font-size="12" lengthAdjust="spacing" textLength="32" x="235.15" y="50.5508">News</text><line style="stroke:#A80036;stroke-width:1.5;" x1="178" x2="293" y1="61.6406" y2="61.6406"/><text fill="#000000" font-family="sans-serif" font-size="11" lengthAdjust="spacing" textLength="47" x="183" y="77.0596">id: Integer</text><text fill="#000000" font-family="sans-serif" font-size="11" lengthAdjust="spacing" textLength="105" x="183" y="90.8955">is_published: Boolean</text><text fill="#000000" font-family="sans-serif" font-size="11" lengthAdjust="spacing" textLength="101" x="183" y="104.7314">date_published: Date</text><text fill="#000000" font-family="sans-serif" font-size="11" lengthAdjust="spacing" textLength="50" x="183" y="118.5674">title: String</text><text fill="#000000" font-family="sans-serif" font-size="11" lengthAdjust="spacing" textLength="87" x="183" y="132.4033">description: String</text><text fill="#000000" font-family="sans-serif" font-size="11" lengthAdjust="spacing" textLength="53" x="183" y="146.2393">body: Json</text><line style="stroke:#A80036;stroke-width:1.5;" x1="178" x2="293" y1="152.6563" y2="152.6563"/><!--MD5=[fa31f0ba2af7efca475efd8927128e25]
class PhotoAlbums--><rect codeLine="62" fill="#FEFECE" filter="url(#fy687030z8vj6)" height="117.1797" id="PhotoAlbums" style="stroke:#A80036;stroke-width:1.5;" width="117" x="329" y="241.6406"/><ellipse cx="348.95" cy="257.6406" fill="#ADD1B2" rx="11" ry="11" style="stroke:#A80036;stroke-width:1.0;"/><path d="M351.7156,253.5156 Q351.8719,253.2969 352.0594,253.1875 Q352.2469,253.0781 352.4656,253.0781 Q352.8406,253.0781 353.075,253.3438 Q353.3094,253.5938 353.3094,254.2031 L353.3094,255.6563 Q353.3094,256.2656 353.075,256.5313 Q352.8406,256.7969 352.4656,256.7969 Q352.1219,256.7969 351.9188,256.5938 Q351.7156,256.4063 351.6063,255.8906 Q351.5594,255.5313 351.3719,255.3438 Q351.0438,254.9688 350.4344,254.75 Q349.825,254.5313 349.2,254.5313 Q348.4344,254.5313 347.7938,254.8594 Q347.1688,255.1875 346.6688,255.9375 Q346.1844,256.6875 346.1844,257.7188 L346.1844,258.8125 Q346.1844,260.0469 347.075,260.875 Q347.9656,261.6875 349.5594,261.6875 Q350.4969,261.6875 351.1531,261.4375 Q351.5438,261.2813 351.9656,260.8438 Q352.2313,260.5781 352.3719,260.5 Q352.5281,260.4219 352.7313,260.4219 Q353.0594,260.4219 353.3094,260.6875 Q353.575,260.9375 353.575,261.2813 Q353.575,261.625 353.2313,262.0313 Q352.7313,262.6094 351.9344,262.9375 Q350.8563,263.3906 349.5594,263.3906 Q348.0438,263.3906 346.8406,262.7656 Q345.8563,262.2656 345.1688,261.2031 Q344.4813,260.125 344.4813,258.8438 L344.4813,257.6875 Q344.4813,256.3594 345.0906,255.2188 Q345.7156,254.0625 346.8094,253.4531 Q347.9031,252.8281 349.1375,252.8281 Q349.8719,252.8281 350.5125,253 Q351.1688,253.1563 351.7156,253.5156 Z " fill="#000000"/><text fill="#000000" font-family="sans-serif" font-size="12" lengthAdjust="spacing" textLength="74" x="364.05" y="262.5508">PhotoAlbums</text><line style="stroke:#A80036;stroke-width:1.5;" x1="330" x2="445" y1="273.6406" y2="273.6406"/><text fill="#000000" font-family="sans-serif" font-size="11" lengthAdjust="spacing" textLength="47" x="335" y="289.0596">id: Integer</text><text fill="#000000" font-family="sans-serif" font-size="11" lengthAdjust="spacing" textLength="70" x="335" y="302.8955">site_id: Integer</text><text fill="#000000" font-family="sans-serif" font-size="11" lengthAdjust="spacing" textLength="60" x="335" y="316.7314">name: String</text><text fill="#000000" font-family="sans-serif" font-size="11" lengthAdjust="spacing" textLength="105" x="335" y="330.5674">is_published: Boolean</text><text fill="#000000" font-family="sans-serif" font-size="11" lengthAdjust="spacing" textLength="87" x="335" y="344.4033">description: String</text><line style="stroke:#A80036;stroke-width:1.5;" x1="330" x2="445" y1="350.8203" y2="350.8203"/><!--MD5=[a805b40f8193e3b705560a3818c5c109]
class Photo--><rect codeLine="72" fill="#FEFECE" filter="url(#fy687030z8vj6)" height="75.6719" id="Photo" style="stroke:#A80036;stroke-width:1.5;" width="99" x="338" y="57.1406"/><ellipse cx="368.75" cy="73.1406" fill="#ADD1B2" rx="11" ry="11" style="stroke:#A80036;stroke-width:1.0;"/><path d="M371.5156,69.0156 Q371.6719,68.7969 371.8594,68.6875 Q372.0469,68.5781 372.2656,68.5781 Q372.6406,68.5781 372.875,68.8438 Q373.1094,69.0938 373.1094,69.7031 L373.1094,71.1563 Q373.1094,71.7656 372.875,72.0313 Q372.6406,72.2969 372.2656,72.2969 Q371.9219,72.2969 371.7188,72.0938 Q371.5156,71.9063 371.4063,71.3906 Q371.3594,71.0313 371.1719,70.8438 Q370.8438,70.4688 370.2344,70.25 Q369.625,70.0313 369,70.0313 Q368.2344,70.0313 367.5938,70.3594 Q366.9688,70.6875 366.4688,71.4375 Q365.9844,72.1875 365.9844,73.2188 L365.9844,74.3125 Q365.9844,75.5469 366.875,76.375 Q367.7656,77.1875 369.3594,77.1875 Q370.2969,77.1875 370.9531,76.9375 Q371.3438,76.7813 371.7656,76.3438 Q372.0313,76.0781 372.1719,76 Q372.3281,75.9219 372.5313,75.9219 Q372.8594,75.9219 373.1094,76.1875 Q373.375,76.4375 373.375,76.7813 Q373.375,77.125 373.0313,77.5313 Q372.5313,78.1094 371.7344,78.4375 Q370.6563,78.8906 369.3594,78.8906 Q367.8438,78.8906 366.6406,78.2656 Q365.6563,77.7656 364.9688,76.7031 Q364.2813,75.625 364.2813,74.3438 L364.2813,73.1875 Q364.2813,71.8594 364.8906,70.7188 Q365.5156,69.5625 366.6094,68.9531 Q367.7031,68.3281 368.9375,68.3281 Q369.6719,68.3281 370.3125,68.5 Q370.9688,68.6563 371.5156,69.0156 Z " fill="#000000"/><text fill="#000000" font-family="sans-serif" font-size="12" lengthAdjust="spacing" textLength="32" x="386.25" y="78.0508">Photo</text><line style="stroke:#A80036;stroke-width:1.5;" x1="339" x2="436" y1="89.1406" y2="89.1406"/><text fill="#000000" font-family="sans-serif" font-size="11" lengthAdjust="spacing" textLength="47" x="344" y="104.5596">id: Integer</text><text fill="#000000" font-family="sans-serif" font-size="11" lengthAdjust="spacing" textLength="87" x="344" y="118.3955">description: String</text><line style="stroke:#A80036;stroke-width:1.5;" x1="339" x2="436" y1="124.8125" y2="124.8125"/><!--MD5=[a40ddf52e1fec4ce097b61d111b8eef5]
reverse link News to NewsCategory--><path codeLine="78" d="M235.5,173.6606 C235.5,196.1406 235.5,220.2806 235.5,241.3306 " fill="none" id="News-backto-NewsCategory" style="stroke:#A80036;stroke-width:1.0;"/><polygon fill="#A80036" points="235.5,160.6506,231.5,166.6506,235.5,172.6506,239.5,166.6506,235.5,160.6506" style="stroke:#A80036;stroke-width:1.0;"/><!--MD5=[da17cd43bb6c3c0f6736b623159339d7]
reverse link NewsCategory to Site--><path codeLine="79" d="M235.5,371.8406 C235.5,393.4506 235.5,417.3506 235.5,439.4506 " fill="none" id="NewsCategory-backto-Site" style="stroke:#A80036;stroke-width:1.0;"/><polygon fill="#A80036" points="235.5,358.7206,231.5,364.7206,235.5,370.7206,239.5,364.7206,235.5,358.7206" style="stroke:#A80036;stroke-width:1.0;"/><!--MD5=[83e37767c3184557b22fc6b8fe3e29c3]
reverse link Photo to PhotoAlbums--><path codeLine="80" d="M387.5,146.4406 C387.5,175.2306 387.5,211.4606 387.5,241.4106 " fill="none" id="Photo-backto-PhotoAlbums" style="stroke:#A80036;stroke-width:1.0;"/><polygon fill="#A80036" points="387.5,133.3706,383.5,139.3706,387.5,145.3706,391.5,139.3706,387.5,133.3706" style="stroke:#A80036;stroke-width:1.0;"/><!--MD5=[512d30726fa2815d631de83ba0b8330a]
reverse link PhotoAlbums to Site--><path codeLine="81" d="M339.68,369.4106 C324.1,391.6506 306.69,416.5106 290.62,439.4506 " fill="none" id="PhotoAlbums-backto-Site" style="stroke:#A80036;stroke-width:1.0;"/><polygon fill="#A80036" points="347.17,358.7206,340.4511,361.3391,340.284,368.5483,347.0029,365.9298,347.17,358.7206" style="stroke:#A80036;stroke-width:1.0;"/><!--MD5=[9b8327147c8be9221472501a0d3f4066]
reverse link Site to Theme--><path codeLine="82" d="M266,611.3906 C271.5,627.8306 276.99,644.2706 281.77,658.5706 " fill="none" id="Site-backto-Theme" style="stroke:#A80036;stroke-width:1.0;"/><polygon fill="#A80036" points="261.81,598.8606,259.9151,605.8183,265.6087,610.2435,267.5036,603.2858,261.81,598.8606" style="stroke:#A80036;stroke-width:1.0;"/><!--MD5=[3ceac8e926511ac7cef118ecfe8f7317]
reverse link Site to SiteType--><path codeLine="83" d="M205.49,611.4106 C199.2,630.5706 192.9,649.7206 187.71,665.5006 " fill="none" id="Site-backto-SiteType" style="stroke:#A80036;stroke-width:1.0;"/><polygon fill="#A80036" points="209.62,598.8606,203.9464,603.3115,205.8728,610.2606,211.5464,605.8097,209.62,598.8606" style="stroke:#A80036;stroke-width:1.0;"/><!--MD5=[bffd851b655ea0dcb015151fff425f42]
reverse link Page to Site--><path codeLine="84" d="M132.12,386.1806 C146.9,405.0506 162.46,424.9006 176.89,443.3206 " fill="none" id="Page-backto-Site" style="stroke:#A80036;stroke-width:1.0;"/><polygon fill="#A80036" points="124,375.8206,124.5519,383.0106,131.401,385.2665,130.8491,378.0766,124,375.8206" style="stroke:#A80036;stroke-width:1.0;"/><!--MD5=[b7bf904c4e99824c5990e5285ae3ac25]
reverse link Page to Page--><path codeLine="85" d="M137.54,264.2406 C150.19,269.0006 159,280.9706 159,300.1406 C159,325.4406 143.66,338.1906 124.39,338.3906 " fill="none" id="Page-backto-Page" style="stroke:#A80036;stroke-width:1.0;"/><polygon fill="#A80036" points="124.39,261.8906,129.5934,266.8831,136.2031,264.0001,130.9997,259.0077,124.39,261.8906" style="stroke:#A80036;stroke-width:1.0;"/><!--MD5=[5ded2cb2ea5e59ad2e367fe433860e33]
@startuml content

title "Диаграмма классов "Контент сайта ВУЗа""


enum SiteType {
    ' Тип сайта
    id: Integer
    name: String
}

class Theme {
    ' Тема сайта
    id: Integer
    name: String
    is_main: Boolean
}

class Site {
    ' Сайт
    id: Integer
    theme_id: Integer
    is_published: Boolean
    description: String
    domain: String
    title: String
    name: String
    body: Json

}

class Page {
    ' Страница сайта
    id: Integer
    site_id: Integer
    is_published: Boolean
    self_id: Integer
    url: String
    title: String
    name: String
    body: Json
}

class NewsCategory {
    ' Категория новостей
    id: Integer
    site_id: Integer
    is_published: Boolean
    title: String
    description: String
}

class News {
    ' Новость
    id: Integer
    is_published: Boolean
    date_published: Date
    title: String
    description: String
    body: Json
}

class PhotoAlbums {
    ' Фото альбом
    id: Integer
    site_id: Integer
    name: String
    is_published: Boolean
    description: String

}

class Photo {
    ' Фото
    id: Integer
    description: String
}

News *- - NewsCategory
NewsCategory *- - Site
Photo *- - PhotoAlbums
PhotoAlbums *- - Site
Site *- - Theme
Site *- - SiteType
Page *- - Site
Page *- - Page

@enduml

@startuml content

title "Диаграмма классов "Контент сайта ВУЗа""


enum SiteType {
    id: Integer
    name: String
}

class Theme {
    id: Integer
    name: String
    is_main: Boolean
}

class Site {
    id: Integer
    theme_id: Integer
    is_published: Boolean
    description: String
    domain: String
    title: String
    name: String
    body: Json

}

class Page {
    id: Integer
    site_id: Integer
    is_published: Boolean
    self_id: Integer
    url: String
    title: String
    name: String
    body: Json
}

class NewsCategory {
    id: Integer
    site_id: Integer
    is_published: Boolean
    title: String
    description: String
}

class News {
    id: Integer
    is_published: Boolean
    date_published: Date
    title: String
    description: String
    body: Json
}

class PhotoAlbums {
    id: Integer
    site_id: Integer
    name: String
    is_published: Boolean
    description: String

}

class Photo {
    id: Integer
    description: String
}

News *- - NewsCategory
NewsCategory *- - Site
Photo *- - PhotoAlbums
PhotoAlbums *- - Site
Site *- - Theme
Site *- - SiteType
Page *- - Site
Page *- - Page

@enduml

PlantUML version 1.2021.16(Wed Dec 08 20:25:22 MSK 2021)
(GPL source distribution)
Java Runtime: OpenJDK Runtime Environment
JVM: OpenJDK 64-Bit Server VM
Default Encoding: Cp1251
Language: ru
Country: RU
--></g></svg>