<?xml version="1.0" encoding="UTF-8" standalone="no"?><svg xmlns="http://www.w3.org/2000/svg" xmlns:xlink="http://www.w3.org/1999/xlink" contentScriptType="application/ecmascript" contentStyleType="text/css" height="235px" preserveAspectRatio="none" style="width:815px;height:235px;background:#FFFFFF;" version="1.1" viewBox="0 0 815 235" width="815px" zoomAndPan="magnify"><defs><filter height="300%" id="f7b1b1f5jzi6z" width="300%" x="-1" y="-1"><feGaussianBlur result="blurOut" stdDeviation="2.0"/><feColorMatrix in="blurOut" result="blurOut2" type="matrix" values="0 0 0 0 0 0 0 0 0 0 0 0 0 0 0 0 0 0 .4 0"/><feOffset dx="4.0" dy="4.0" in="blurOut2" result="blurOut3"/><feBlend in="SourceGraphic" in2="blurOut3" mode="normal"/></filter></defs><g><text fill="#000000" font-family="sans-serif" font-size="18" lengthAdjust="spacing" textLength="209" x="296.7036" y="18.6855">Диаграмма "Гости сайта"</text><!--MD5=[376048f8d079f78ded9155c450b24168]
entity entrant--><ellipse cx="442.5" cy="157.1406" fill="#FEFECE" filter="url(#f7b1b1f5jzi6z)" rx="8" ry="8" style="stroke:#A80036;stroke-width:1.5;"/><path d="M442.5,165.1406 L442.5,192.1406 M429.5,173.1406 L455.5,173.1406 M442.5,192.1406 L429.5,207.1406 M442.5,192.1406 L455.5,207.1406 " fill="none" filter="url(#f7b1b1f5jzi6z)" style="stroke:#A80036;stroke-width:1.5;"/><text fill="#000000" font-family="sans-serif" font-size="14" lengthAdjust="spacing" textLength="78" x="403.5" y="227.1738">Абитуриент</text><!--MD5=[a1f8def682ada21b6ced8d54705d01fc]
entity graduate--><ellipse cx="200.5" cy="157.1406" fill="#FEFECE" filter="url(#f7b1b1f5jzi6z)" rx="8" ry="8" style="stroke:#A80036;stroke-width:1.5;"/><path d="M200.5,165.1406 L200.5,192.1406 M187.5,173.1406 L213.5,173.1406 M200.5,192.1406 L187.5,207.1406 M200.5,192.1406 L213.5,207.1406 " fill="none" filter="url(#f7b1b1f5jzi6z)" style="stroke:#A80036;stroke-width:1.5;"/><text fill="#000000" font-family="sans-serif" font-size="14" lengthAdjust="spacing" textLength="69" x="166" y="227.1738">Выпускник</text><!--MD5=[43402a1c995edd6e3984c2351f49ed52]
entity parent--><ellipse cx="336.5" cy="157.1406" fill="#FEFECE" filter="url(#f7b1b1f5jzi6z)" rx="8" ry="8" style="stroke:#A80036;stroke-width:1.5;"/><path d="M336.5,165.1406 L336.5,192.1406 M323.5,173.1406 L349.5,173.1406 M336.5,192.1406 L323.5,207.1406 M336.5,192.1406 L349.5,207.1406 " fill="none" filter="url(#f7b1b1f5jzi6z)" style="stroke:#A80036;stroke-width:1.5;"/><text fill="#000000" font-family="sans-serif" font-size="14" lengthAdjust="spacing" textLength="64" x="304.5" y="227.1738">Родитель</text><ellipse cx="389.5257" cy="58.1458" fill="#FEFECE" filter="url(#f7b1b1f5jzi6z)" rx="135.5257" ry="29.5051" style="stroke:#A80036;stroke-width:1.5;"/><text fill="#000000" font-family="sans-serif" font-size="14" lengthAdjust="spacing" textLength="238" x="270.5257" y="61.8743">Просмотр нормативных документов</text><ellipse cx="112.3456" cy="58.3097" fill="#FEFECE" filter="url(#f7b1b1f5jzi6z)" rx="106.3456" ry="23.6691" style="stroke:#A80036;stroke-width:1.5;"/><text fill="#000000" font-family="sans-serif" font-size="14" lengthAdjust="spacing" textLength="175" x="24.8456" y="62.0383">Просмотр медиа контента</text><ellipse cx="681.7036" cy="58.1741" fill="#FEFECE" filter="url(#f7b1b1f5jzi6z)" rx="121.7036" ry="28.0335" style="stroke:#A80036;stroke-width:1.5;"/><text fill="#000000" font-family="sans-serif" font-size="14" lengthAdjust="spacing" textLength="155" x="601.2036" y="53.886">Просмотр информации</text><text fill="#000000" font-family="sans-serif" font-size="14" lengthAdjust="spacing" textLength="120" x="620.7036" y="71.4954">для абитуриентов</text><!--MD5=[2e947cd70a811c99df8b2cce5b71ee71]
reverse link UC1 to entrant--><path d="M408.91,106.3906 C414.43,119.8206 420.4,134.3406 425.74,147.3606 " fill="none" id="UC1-backto-entrant" style="stroke:#A80036;stroke-width:1.0;"/><polygon fill="none" points="402.39,108.9306,401.26,87.7706,415.34,103.6106,402.39,108.9306" style="stroke:#A80036;stroke-width:1.0;"/><!--MD5=[02dcc652ce43955fac4d8bbbd65e88e9]
reverse link UC1 to graduate--><path d="M332.6,97.9806 C300.86,119.6406 262.36,145.9206 235.13,164.5006 " fill="none" id="UC1-backto-graduate" style="stroke:#A80036;stroke-width:1.0;"/><polygon fill="none" points="328.95,91.9906,349.42,86.5006,336.85,103.5506,328.95,91.9906" style="stroke:#A80036;stroke-width:1.0;"/><!--MD5=[ea587c9942438e03887a85962f55fe9b]
reverse link UC1 to parent--><path d="M370.09,106.3906 C364.57,119.8206 358.6,134.3406 353.26,147.3606 " fill="none" id="UC1-backto-parent" style="stroke:#A80036;stroke-width:1.0;"/><polygon fill="none" points="363.66,103.6106,377.74,87.7706,376.61,108.9306,363.66,103.6106" style="stroke:#A80036;stroke-width:1.0;"/><!--MD5=[0a4f564a45ae0d28e29fbd502399ec46]
reverse link UC2 to entrant--><path d="M202.59,80.9006 C257.14,95.8706 327.21,118.3506 385.5,147.6406 C391.47,150.6406 397.5,154.2206 403.3,157.9906 " fill="none" id="UC2-backto-entrant" style="stroke:#A80036;stroke-width:1.0;"/><polygon fill="none" points="200.75,87.6606,183.24,75.7306,204.37,74.1306,200.75,87.6606" style="stroke:#A80036;stroke-width:1.0;"/><!--MD5=[5c5cb03ba4f3b90daff520937620b632]
reverse link UC2 to parent--><path d="M166.83,90.4306 C209.79,115.1706 268.31,148.8706 304.19,169.5306 " fill="none" id="UC2-backto-parent" style="stroke:#A80036;stroke-width:1.0;"/><polygon fill="none" points="163.33,96.4906,149.49,80.4406,170.31,84.3606,163.33,96.4906" style="stroke:#A80036;stroke-width:1.0;"/><!--MD5=[8dae147ef2b8b8802b4c08af456d2b6b]
reverse link UC2 to graduate--><path d="M139.17,98.2406 C149.79,113.8006 162.01,131.7206 172.74,147.4406 " fill="none" id="UC2-backto-graduate" style="stroke:#A80036;stroke-width:1.0;"/><polygon fill="none" points="133.32,102.0806,127.83,81.6106,144.88,94.1906,133.32,102.0806" style="stroke:#A80036;stroke-width:1.0;"/><!--MD5=[036c25654b58a932fb7b4dffd99b7d94]
reverse link UC3 to entrant--><path d="M617.44,93.7206 C574.16,117.0806 518.41,147.1706 481.62,167.0306 " fill="none" id="UC3-backto-entrant" style="stroke:#A80036;stroke-width:1.0;"/><polygon fill="none" points="614.21,87.5106,635.14,84.1706,620.86,99.8306,614.21,87.5106" style="stroke:#A80036;stroke-width:1.0;"/><!--MD5=[3b9cdab5455d22bd5087afdd372796b5]
reverse link UC3 to parent--><path d="M570.06,81.2806 C512.75,95.3806 443.06,116.8906 385.5,147.6406 C379.76,150.7106 374.06,154.5106 368.69,158.5506 " fill="none" id="UC3-backto-parent" style="stroke:#A80036;stroke-width:1.0;"/><polygon fill="none" points="568.69,74.4106,589.77,76.5906,571.93,88.0306,568.69,74.4106" style="stroke:#A80036;stroke-width:1.0;"/><!--MD5=[a27f738097a4a5165f405b00ff0ba0d4]
@startuml guests_site
title Диаграмма "Гости сайта"

' left to right direction

' Обявление актеров
actor "Абитуриент" as entrant
actor "Выпускник" as graduate
actor "Родитель" as parent

usecase "Просмотр нормативных документов" as UC1
usecase "Просмотр медиа контента" as UC2
usecase "Просмотр информации\n для абитуриентов" as UC3

UC1 <|- - entrant
UC1 <|- - graduate
UC1 <|- - parent

UC2 <|- - entrant
UC2 <|- - parent
UC2 <|- - graduate

UC3 <|- - entrant
UC3 <|- - parent

@enduml

@startuml guests_site
title Диаграмма "Гости сайта"


actor "Абитуриент" as entrant
actor "Выпускник" as graduate
actor "Родитель" as parent

usecase "Просмотр нормативных документов" as UC1
usecase "Просмотр медиа контента" as UC2
usecase "Просмотр информации\n для абитуриентов" as UC3

UC1 <|- - entrant
UC1 <|- - graduate
UC1 <|- - parent

UC2 <|- - entrant
UC2 <|- - parent
UC2 <|- - graduate

UC3 <|- - entrant
UC3 <|- - parent

@enduml

PlantUML version 1.2021.16(Wed Dec 08 20:25:22 MSK 2021)
(GPL source distribution)
Java Runtime: Java(TM) SE Runtime Environment
JVM: Java HotSpot(TM) 64-Bit Server VM
Default Encoding: Cp1251
Language: ru
Country: RU
--></g></svg>