<?xml version="1.0" encoding="UTF-8" standalone="no"?><svg xmlns="http://www.w3.org/2000/svg" xmlns:xlink="http://www.w3.org/1999/xlink" contentScriptType="application/ecmascript" contentStyleType="text/css" height="432px" preserveAspectRatio="none" style="width:299px;height:432px;background:#FFFFFF;" version="1.1" viewBox="0 0 299 432" width="299px" zoomAndPan="magnify"><defs><filter height="300%" id="f113fk8moowpa8" width="300%" x="-1" y="-1"><feGaussianBlur result="blurOut" stdDeviation="2.0"/><feColorMatrix in="blurOut" result="blurOut2" type="matrix" values="0 0 0 0 0 0 0 0 0 0 0 0 0 0 0 0 0 0 .4 0"/><feOffset dx="4.0" dy="4.0" in="blurOut2" result="blurOut3"/><feBlend in="SourceGraphic" in2="blurOut3" mode="normal"/></filter></defs><g><text fill="#000000" font-family="sans-serif" font-size="18" lengthAdjust="spacing" textLength="288" x="2" y="18.6855">Диаграмма классов "Университет"</text><!--MD5=[3c4b48126fec305c2e13c24fa82ecbef]
class LevelEducation--><rect codeLine="5" fill="#FEFECE" filter="url(#f113fk8moowpa8)" height="75.6719" id="LevelEducation" style="stroke:#A80036;stroke-width:1.5;" width="116" x="24.5" y="342.6406"/><ellipse cx="39.5" cy="358.6406" fill="#EB937F" rx="11" ry="11" style="stroke:#A80036;stroke-width:1.0;"/><path d="M38.3594,359.4375 L38.3594,361.9375 L42.6875,361.9375 L42.6875,361.0156 Q42.6875,360.4063 42.9219,360.1406 Q43.1719,359.875 43.5469,359.875 Q43.9219,359.875 44.1563,360.1406 Q44.3906,360.4063 44.3906,361.0156 L44.3906,363.6406 L36.3906,363.6406 Q35.7656,363.6406 35.5,363.4063 Q35.25,363.1719 35.25,362.7813 Q35.25,362.4063 35.5156,362.1719 Q35.7813,361.9375 36.3906,361.9375 L36.6563,361.9375 L36.6563,355.2813 L36.3906,355.2813 Q35.7656,355.2813 35.5,355.0469 Q35.25,354.8125 35.25,354.4219 Q35.25,354.0469 35.5,353.8125 Q35.7656,353.5781 36.3906,353.5781 L44.0156,353.5781 L44.0156,356.1719 Q44.0156,356.7813 43.7813,357.0469 Q43.5625,357.2969 43.1719,357.2969 Q42.7969,357.2969 42.5625,357.0469 Q42.3281,356.7813 42.3281,356.1719 L42.3281,355.2813 L38.3594,355.2813 L38.3594,357.7344 L39.8438,357.7344 Q39.8438,357.0781 39.9688,356.8906 Q40.2344,356.4844 40.7031,356.4844 Q41.0781,356.4844 41.3125,356.75 Q41.5469,357 41.5469,357.6094 L41.5469,359.5781 Q41.5469,360.125 41.4219,360.3125 Q41.1563,360.7031 40.7031,360.7031 Q40.2344,360.7031 39.9688,360.2969 Q39.8438,360.1094 39.8438,359.4375 L38.3594,359.4375 Z " fill="#000000"/><text fill="#000000" font-family="sans-serif" font-size="12" lengthAdjust="spacing" textLength="84" x="53.5" y="363.5508">LevelEducation</text><line style="stroke:#A80036;stroke-width:1.5;" x1="25.5" x2="139.5" y1="374.6406" y2="374.6406"/><text fill="#000000" font-family="sans-serif" font-size="11" lengthAdjust="spacing" textLength="47" x="30.5" y="390.0596">id: Integer</text><text fill="#000000" font-family="sans-serif" font-size="11" lengthAdjust="spacing" textLength="60" x="30.5" y="403.8955">name: String</text><line style="stroke:#A80036;stroke-width:1.5;" x1="25.5" x2="139.5" y1="410.3125" y2="410.3125"/><!--MD5=[244939a14b868e2c127e3dbc5bed03b4]
class Faculty--><rect codeLine="11" fill="#FEFECE" filter="url(#f113fk8moowpa8)" height="103.3438" id="Faculty" style="stroke:#A80036;stroke-width:1.5;" width="140" x="12.5" y="179.6406"/><ellipse cx="59.25" cy="195.6406" fill="#ADD1B2" rx="11" ry="11" style="stroke:#A80036;stroke-width:1.0;"/><path d="M62.0156,191.5156 Q62.1719,191.2969 62.3594,191.1875 Q62.5469,191.0781 62.7656,191.0781 Q63.1406,191.0781 63.375,191.3438 Q63.6094,191.5938 63.6094,192.2031 L63.6094,193.6563 Q63.6094,194.2656 63.375,194.5313 Q63.1406,194.7969 62.7656,194.7969 Q62.4219,194.7969 62.2188,194.5938 Q62.0156,194.4063 61.9063,193.8906 Q61.8594,193.5313 61.6719,193.3438 Q61.3438,192.9688 60.7344,192.75 Q60.125,192.5313 59.5,192.5313 Q58.7344,192.5313 58.0938,192.8594 Q57.4688,193.1875 56.9688,193.9375 Q56.4844,194.6875 56.4844,195.7188 L56.4844,196.8125 Q56.4844,198.0469 57.375,198.875 Q58.2656,199.6875 59.8594,199.6875 Q60.7969,199.6875 61.4531,199.4375 Q61.8438,199.2813 62.2656,198.8438 Q62.5313,198.5781 62.6719,198.5 Q62.8281,198.4219 63.0313,198.4219 Q63.3594,198.4219 63.6094,198.6875 Q63.875,198.9375 63.875,199.2813 Q63.875,199.625 63.5313,200.0313 Q63.0313,200.6094 62.2344,200.9375 Q61.1563,201.3906 59.8594,201.3906 Q58.3438,201.3906 57.1406,200.7656 Q56.1563,200.2656 55.4688,199.2031 Q54.7813,198.125 54.7813,196.8438 L54.7813,195.6875 Q54.7813,194.3594 55.3906,193.2188 Q56.0156,192.0625 57.1094,191.4531 Q58.2031,190.8281 59.4375,190.8281 Q60.1719,190.8281 60.8125,191 Q61.4688,191.1563 62.0156,191.5156 Z " fill="#000000"/><text fill="#000000" font-family="sans-serif" font-size="12" lengthAdjust="spacing" textLength="38" x="79.75" y="200.5508">Faculty</text><line style="stroke:#A80036;stroke-width:1.5;" x1="13.5" x2="151.5" y1="211.6406" y2="211.6406"/><text fill="#000000" font-family="sans-serif" font-size="11" lengthAdjust="spacing" textLength="47" x="18.5" y="227.0596">id: Integer</text><text fill="#000000" font-family="sans-serif" font-size="11" lengthAdjust="spacing" textLength="60" x="18.5" y="240.8955">name: String</text><text fill="#000000" font-family="sans-serif" font-size="11" lengthAdjust="spacing" textLength="91" x="18.5" y="254.7314">short_name: String</text><text fill="#000000" font-family="sans-serif" font-size="11" lengthAdjust="spacing" textLength="128" x="18.5" y="268.5674">level_education_id: Integer</text><line style="stroke:#A80036;stroke-width:1.5;" x1="13.5" x2="151.5" y1="274.9844" y2="274.9844"/><!--MD5=[c50d89439a12e948b363c4efab1c487c]
class Department--><rect codeLine="19" fill="#FEFECE" filter="url(#f113fk8moowpa8)" height="89.5078" id="Department" style="stroke:#A80036;stroke-width:1.5;" width="103" x="31" y="29.6406"/><ellipse cx="48.7" cy="45.6406" fill="#ADD1B2" rx="11" ry="11" style="stroke:#A80036;stroke-width:1.0;"/><path d="M51.4656,41.5156 Q51.6219,41.2969 51.8094,41.1875 Q51.9969,41.0781 52.2156,41.0781 Q52.5906,41.0781 52.825,41.3438 Q53.0594,41.5938 53.0594,42.2031 L53.0594,43.6563 Q53.0594,44.2656 52.825,44.5313 Q52.5906,44.7969 52.2156,44.7969 Q51.8719,44.7969 51.6688,44.5938 Q51.4656,44.4063 51.3563,43.8906 Q51.3094,43.5313 51.1219,43.3438 Q50.7938,42.9688 50.1844,42.75 Q49.575,42.5313 48.95,42.5313 Q48.1844,42.5313 47.5438,42.8594 Q46.9188,43.1875 46.4188,43.9375 Q45.9344,44.6875 45.9344,45.7188 L45.9344,46.8125 Q45.9344,48.0469 46.825,48.875 Q47.7156,49.6875 49.3094,49.6875 Q50.2469,49.6875 50.9031,49.4375 Q51.2938,49.2813 51.7156,48.8438 Q51.9813,48.5781 52.1219,48.5 Q52.2781,48.4219 52.4813,48.4219 Q52.8094,48.4219 53.0594,48.6875 Q53.325,48.9375 53.325,49.2813 Q53.325,49.625 52.9813,50.0313 Q52.4813,50.6094 51.6844,50.9375 Q50.6063,51.3906 49.3094,51.3906 Q47.7938,51.3906 46.5906,50.7656 Q45.6063,50.2656 44.9188,49.2031 Q44.2313,48.125 44.2313,46.8438 L44.2313,45.6875 Q44.2313,44.3594 44.8406,43.2188 Q45.4656,42.0625 46.5594,41.4531 Q47.6531,40.8281 48.8875,40.8281 Q49.6219,40.8281 50.2625,41 Q50.9188,41.1563 51.4656,41.5156 Z " fill="#000000"/><text fill="#000000" font-family="sans-serif" font-size="12" lengthAdjust="spacing" textLength="65" x="63.3" y="50.5508">Department</text><line style="stroke:#A80036;stroke-width:1.5;" x1="32" x2="133" y1="61.6406" y2="61.6406"/><text fill="#000000" font-family="sans-serif" font-size="11" lengthAdjust="spacing" textLength="47" x="37" y="77.0596">id: Integer</text><text fill="#000000" font-family="sans-serif" font-size="11" lengthAdjust="spacing" textLength="60" x="37" y="90.8955">name: String</text><text fill="#000000" font-family="sans-serif" font-size="11" lengthAdjust="spacing" textLength="91" x="37" y="104.7314">short_name: String</text><line style="stroke:#A80036;stroke-width:1.5;" x1="32" x2="133" y1="111.1484" y2="111.1484"/><!--MD5=[209029d07fd19def03f61823c9c1351a]
class Campus--><rect codeLine="26" fill="#FEFECE" filter="url(#f113fk8moowpa8)" height="75.6719" id="Campus" style="stroke:#A80036;stroke-width:1.5;" width="86" x="187.5" y="193.1406"/><ellipse cx="205.2" cy="209.1406" fill="#ADD1B2" rx="11" ry="11" style="stroke:#A80036;stroke-width:1.0;"/><path d="M207.9656,205.0156 Q208.1219,204.7969 208.3094,204.6875 Q208.4969,204.5781 208.7156,204.5781 Q209.0906,204.5781 209.325,204.8438 Q209.5594,205.0938 209.5594,205.7031 L209.5594,207.1563 Q209.5594,207.7656 209.325,208.0313 Q209.0906,208.2969 208.7156,208.2969 Q208.3719,208.2969 208.1688,208.0938 Q207.9656,207.9063 207.8563,207.3906 Q207.8094,207.0313 207.6219,206.8438 Q207.2938,206.4688 206.6844,206.25 Q206.075,206.0313 205.45,206.0313 Q204.6844,206.0313 204.0438,206.3594 Q203.4188,206.6875 202.9188,207.4375 Q202.4344,208.1875 202.4344,209.2188 L202.4344,210.3125 Q202.4344,211.5469 203.325,212.375 Q204.2156,213.1875 205.8094,213.1875 Q206.7469,213.1875 207.4031,212.9375 Q207.7938,212.7813 208.2156,212.3438 Q208.4813,212.0781 208.6219,212 Q208.7781,211.9219 208.9813,211.9219 Q209.3094,211.9219 209.5594,212.1875 Q209.825,212.4375 209.825,212.7813 Q209.825,213.125 209.4813,213.5313 Q208.9813,214.1094 208.1844,214.4375 Q207.1063,214.8906 205.8094,214.8906 Q204.2938,214.8906 203.0906,214.2656 Q202.1063,213.7656 201.4188,212.7031 Q200.7313,211.625 200.7313,210.3438 L200.7313,209.1875 Q200.7313,207.8594 201.3406,206.7188 Q201.9656,205.5625 203.0594,204.9531 Q204.1531,204.3281 205.3875,204.3281 Q206.1219,204.3281 206.7625,204.5 Q207.4188,204.6563 207.9656,205.0156 Z " fill="#000000"/><text fill="#000000" font-family="sans-serif" font-size="12" lengthAdjust="spacing" textLength="48" x="219.8" y="214.0508">Campus</text><line style="stroke:#A80036;stroke-width:1.5;" x1="188.5" x2="272.5" y1="225.1406" y2="225.1406"/><text fill="#000000" font-family="sans-serif" font-size="11" lengthAdjust="spacing" textLength="47" x="193.5" y="240.5596">id: Integer</text><text fill="#000000" font-family="sans-serif" font-size="11" lengthAdjust="spacing" textLength="74" x="193.5" y="254.3955">address: String</text><line style="stroke:#A80036;stroke-width:1.5;" x1="188.5" x2="272.5" y1="260.8125" y2="260.8125"/><!--MD5=[bec07c1bdb2f4b5ed9f4ff914d6eed84]
class Audience--><rect codeLine="32" fill="#FEFECE" filter="url(#f113fk8moowpa8)" height="89.5078" id="Audience" style="stroke:#A80036;stroke-width:1.5;" width="110" x="175.5" y="29.6406"/><ellipse cx="202.65" cy="45.6406" fill="#ADD1B2" rx="11" ry="11" style="stroke:#A80036;stroke-width:1.0;"/><path d="M205.4156,41.5156 Q205.5719,41.2969 205.7594,41.1875 Q205.9469,41.0781 206.1656,41.0781 Q206.5406,41.0781 206.775,41.3438 Q207.0094,41.5938 207.0094,42.2031 L207.0094,43.6563 Q207.0094,44.2656 206.775,44.5313 Q206.5406,44.7969 206.1656,44.7969 Q205.8219,44.7969 205.6188,44.5938 Q205.4156,44.4063 205.3063,43.8906 Q205.2594,43.5313 205.0719,43.3438 Q204.7438,42.9688 204.1344,42.75 Q203.525,42.5313 202.9,42.5313 Q202.1344,42.5313 201.4938,42.8594 Q200.8688,43.1875 200.3688,43.9375 Q199.8844,44.6875 199.8844,45.7188 L199.8844,46.8125 Q199.8844,48.0469 200.775,48.875 Q201.6656,49.6875 203.2594,49.6875 Q204.1969,49.6875 204.8531,49.4375 Q205.2438,49.2813 205.6656,48.8438 Q205.9313,48.5781 206.0719,48.5 Q206.2281,48.4219 206.4313,48.4219 Q206.7594,48.4219 207.0094,48.6875 Q207.275,48.9375 207.275,49.2813 Q207.275,49.625 206.9313,50.0313 Q206.4313,50.6094 205.6344,50.9375 Q204.5563,51.3906 203.2594,51.3906 Q201.7438,51.3906 200.5406,50.7656 Q199.5563,50.2656 198.8688,49.2031 Q198.1813,48.125 198.1813,46.8438 L198.1813,45.6875 Q198.1813,44.3594 198.7906,43.2188 Q199.4156,42.0625 200.5094,41.4531 Q201.6031,40.8281 202.8375,40.8281 Q203.5719,40.8281 204.2125,41 Q204.8688,41.1563 205.4156,41.5156 Z " fill="#000000"/><text fill="#000000" font-family="sans-serif" font-size="12" lengthAdjust="spacing" textLength="51" x="219.35" y="50.5508">Audience</text><line style="stroke:#A80036;stroke-width:1.5;" x1="176.5" x2="284.5" y1="61.6406" y2="61.6406"/><text fill="#000000" font-family="sans-serif" font-size="11" lengthAdjust="spacing" textLength="47" x="181.5" y="77.0596">id: Integer</text><text fill="#000000" font-family="sans-serif" font-size="11" lengthAdjust="spacing" textLength="70" x="181.5" y="90.8955">number: String</text><text fill="#000000" font-family="sans-serif" font-size="11" lengthAdjust="spacing" textLength="98" x="181.5" y="104.7314">extra_settings: Json</text><line style="stroke:#A80036;stroke-width:1.5;" x1="176.5" x2="284.5" y1="111.1484" y2="111.1484"/><!--MD5=[f48dcf2501dd285eee32de3d573091fd]
reverse link Audience to Campus--><path codeLine="40" d="M230.5,133.0606 C230.5,153.0606 230.5,174.9806 230.5,192.9106 " fill="none" id="Audience-backto-Campus" style="stroke:#A80036;stroke-width:1.0;"/><polygon fill="#A80036" points="230.5,119.9106,226.5,125.9106,230.5,131.9106,234.5,125.9106,230.5,119.9106" style="stroke:#A80036;stroke-width:1.0;"/><!--MD5=[2d4aac607423ef38bf0e2b978b8f6335]
reverse link Department to Faculty--><path codeLine="41" d="M82.5,133.0006 C82.5,148.2906 82.5,164.7006 82.5,179.6006 " fill="none" id="Department-backto-Faculty" style="stroke:#A80036;stroke-width:1.0;"/><polygon fill="#A80036" points="82.5,119.9106,78.5,125.9106,82.5,131.9106,86.5,125.9106,82.5,119.9106" style="stroke:#A80036;stroke-width:1.0;"/><!--MD5=[475c44d24c798df6dd11ffbd005db7bb]
reverse link Faculty to LevelEducation--><path codeLine="42" d="M82.5,295.9706 C82.5,311.7906 82.5,328.2206 82.5,342.3006 " fill="none" id="Faculty-backto-LevelEducation" style="stroke:#A80036;stroke-width:1.0;"/><polygon fill="#A80036" points="82.5,282.9006,78.5,288.9006,82.5,294.9006,86.5,288.9006,82.5,282.9006" style="stroke:#A80036;stroke-width:1.0;"/><!--MD5=[1a2d16d515e16cca4f033b677c0b2761]
@startuml university

title "Диаграмма классов "Университет""


enum LevelEducation {
    ' Уровень образования
    id: Integer
    name: String
}

class Faculty {
    ' Факультет
    id: Integer
    name: String
    short_name: String
    level_education_id: Integer
}

class Department {
    ' Кафедра
    id: Integer
    name: String
    short_name: String
}

class Campus {
    ' Корпус
    id: Integer
    address: String
}

class Audience {
    ' Аудитория
    id: Integer
    number: String
    extra_settings: Json
}

' Объявление отношений подсистемы
Audience *- - Campus
Department *- - Faculty
Faculty *- - LevelEducation

@enduml

@startuml university

title "Диаграмма классов "Университет""


enum LevelEducation {
    id: Integer
    name: String
}

class Faculty {
    id: Integer
    name: String
    short_name: String
    level_education_id: Integer
}

class Department {
    id: Integer
    name: String
    short_name: String
}

class Campus {
    id: Integer
    address: String
}

class Audience {
    id: Integer
    number: String
    extra_settings: Json
}

Audience *- - Campus
Department *- - Faculty
Faculty *- - LevelEducation

@enduml

PlantUML version 1.2021.16(Wed Dec 08 20:25:22 MSK 2021)
(GPL source distribution)
Java Runtime: OpenJDK Runtime Environment
JVM: OpenJDK 64-Bit Server VM
Default Encoding: Cp1251
Language: ru
Country: RU
--></g></svg>