<?xml version="1.0" encoding="UTF-8" standalone="no"?><svg xmlns="http://www.w3.org/2000/svg" xmlns:xlink="http://www.w3.org/1999/xlink" contentScriptType="application/ecmascript" contentStyleType="text/css" height="379px" preserveAspectRatio="none" style="width:312px;height:379px;background:#FFFFFF;" version="1.1" viewBox="0 0 312 379" width="312px" zoomAndPan="magnify"><defs><filter height="300%" id="frl430brqd9aq" width="300%" x="-1" y="-1"><feGaussianBlur result="blurOut" stdDeviation="2.0"/><feColorMatrix in="blurOut" result="blurOut2" type="matrix" values="0 0 0 0 0 0 0 0 0 0 0 0 0 0 0 0 0 0 .4 0"/><feOffset dx="4.0" dy="4.0" in="blurOut2" result="blurOut3"/><feBlend in="SourceGraphic" in2="blurOut3" mode="normal"/></filter></defs><g><text fill="#000000" font-family="sans-serif" font-size="18" lengthAdjust="spacing" textLength="303" x="2" y="18.6855">Диаграмма классов "Пользователи"</text><!--MD5=[45d42ff7800d812d5f83c7d3273eb427]
class UserRole--><rect codeLine="4" fill="#FEFECE" filter="url(#frl430brqd9aq)" height="75.6719" id="UserRole" style="stroke:#A80036;stroke-width:1.5;" width="85" x="31.25" y="289.6406"/><ellipse cx="46.25" cy="305.6406" fill="#EB937F" rx="11" ry="11" style="stroke:#A80036;stroke-width:1.0;"/><path d="M45.1094,306.4375 L45.1094,308.9375 L49.4375,308.9375 L49.4375,308.0156 Q49.4375,307.4063 49.6797,307.1406 Q49.9219,306.875 50.2969,306.875 Q50.6719,306.875 50.9063,307.1406 Q51.1406,307.4063 51.1406,308.0156 L51.1406,310.6406 L43.1406,310.6406 Q42.5156,310.6406 42.2578,310.4063 Q42,310.1719 42,309.7813 Q42,309.4063 42.2656,309.1719 Q42.5313,308.9375 43.1406,308.9375 L43.4063,308.9375 L43.4063,302.2813 L43.1406,302.2813 Q42.5156,302.2813 42.2578,302.0469 Q42,301.8125 42,301.4219 Q42,301.0469 42.2578,300.8125 Q42.5156,300.5781 43.1406,300.5781 L50.7656,300.5781 L50.7656,303.1719 Q50.7656,303.7813 50.5391,304.0391 Q50.3125,304.2969 49.9219,304.2969 Q49.5469,304.2969 49.3125,304.0391 Q49.0781,303.7813 49.0781,303.1719 L49.0781,302.2813 L45.1094,302.2813 L45.1094,304.7344 L46.5938,304.7344 Q46.5938,304.0781 46.7188,303.8906 Q46.9844,303.4844 47.4531,303.4844 Q47.8281,303.4844 48.0625,303.7422 Q48.2969,304 48.2969,304.6094 L48.2969,306.5781 Q48.2969,307.125 48.1719,307.3125 Q47.9063,307.7031 47.4531,307.7031 Q46.9844,307.7031 46.7188,307.2969 Q46.5938,307.1094 46.5938,306.4375 L45.1094,306.4375 Z " fill="#000000"/><text fill="#000000" font-family="sans-serif" font-size="12" lengthAdjust="spacing" textLength="53" x="60.25" y="310.5508">UserRole</text><line style="stroke:#A80036;stroke-width:1.5;" x1="32.25" x2="115.25" y1="321.6406" y2="321.6406"/><text fill="#000000" font-family="sans-serif" font-size="11" lengthAdjust="spacing" textLength="47" x="37.25" y="337.0596">id: Integer</text><text fill="#000000" font-family="sans-serif" font-size="11" lengthAdjust="spacing" textLength="60" x="37.25" y="350.8955">name: String</text><line style="stroke:#A80036;stroke-width:1.5;" x1="32.25" x2="115.25" y1="357.3125" y2="357.3125"/><!--MD5=[73271e45a43e512b41cca347d035708e]
class UserPermissions--><rect codeLine="10" fill="#FEFECE" filter="url(#frl430brqd9aq)" height="75.6719" id="UserPermissions" style="stroke:#A80036;stroke-width:1.5;" width="130" x="151.75" y="289.6406"/><ellipse cx="166.75" cy="305.6406" fill="#EB937F" rx="11" ry="11" style="stroke:#A80036;stroke-width:1.0;"/><path d="M165.6094,306.4375 L165.6094,308.9375 L169.9375,308.9375 L169.9375,308.0156 Q169.9375,307.4063 170.1797,307.1406 Q170.4219,306.875 170.7969,306.875 Q171.1719,306.875 171.4063,307.1406 Q171.6406,307.4063 171.6406,308.0156 L171.6406,310.6406 L163.6406,310.6406 Q163.0156,310.6406 162.7578,310.4063 Q162.5,310.1719 162.5,309.7813 Q162.5,309.4063 162.7656,309.1719 Q163.0313,308.9375 163.6406,308.9375 L163.9063,308.9375 L163.9063,302.2813 L163.6406,302.2813 Q163.0156,302.2813 162.7578,302.0469 Q162.5,301.8125 162.5,301.4219 Q162.5,301.0469 162.7578,300.8125 Q163.0156,300.5781 163.6406,300.5781 L171.2656,300.5781 L171.2656,303.1719 Q171.2656,303.7813 171.0391,304.0391 Q170.8125,304.2969 170.4219,304.2969 Q170.0469,304.2969 169.8125,304.0391 Q169.5781,303.7813 169.5781,303.1719 L169.5781,302.2813 L165.6094,302.2813 L165.6094,304.7344 L167.0938,304.7344 Q167.0938,304.0781 167.2188,303.8906 Q167.4844,303.4844 167.9531,303.4844 Q168.3281,303.4844 168.5625,303.7422 Q168.7969,304 168.7969,304.6094 L168.7969,306.5781 Q168.7969,307.125 168.6719,307.3125 Q168.4063,307.7031 167.9531,307.7031 Q167.4844,307.7031 167.2188,307.2969 Q167.0938,307.1094 167.0938,306.4375 L165.6094,306.4375 Z " fill="#000000"/><text fill="#000000" font-family="sans-serif" font-size="12" lengthAdjust="spacing" textLength="98" x="180.75" y="310.5508">UserPermissions</text><line style="stroke:#A80036;stroke-width:1.5;" x1="152.75" x2="280.75" y1="321.6406" y2="321.6406"/><text fill="#000000" font-family="sans-serif" font-size="11" lengthAdjust="spacing" textLength="47" x="157.75" y="337.0596">id: Integer</text><text fill="#000000" font-family="sans-serif" font-size="11" lengthAdjust="spacing" textLength="60" x="157.75" y="350.8955">name: String</text><line style="stroke:#A80036;stroke-width:1.5;" x1="152.75" x2="280.75" y1="357.3125" y2="357.3125"/><!--MD5=[3fd616f346a44cd59a91eb10b19e157c]
class User--><rect codeLine="16" fill="#FEFECE" filter="url(#frl430brqd9aq)" height="200.1953" id="User" style="stroke:#A80036;stroke-width:1.5;" width="177" x="56.25" y="29.6406"/><ellipse cx="127" cy="45.6406" fill="#ADD1B2" rx="11" ry="11" style="stroke:#A80036;stroke-width:1.0;"/><path d="M129.7656,41.5156 Q129.9219,41.2969 130.1094,41.1875 Q130.2969,41.0781 130.5156,41.0781 Q130.8906,41.0781 131.125,41.3359 Q131.3594,41.5938 131.3594,42.2031 L131.3594,43.6563 Q131.3594,44.2656 131.125,44.5313 Q130.8906,44.7969 130.5156,44.7969 Q130.1719,44.7969 129.9688,44.5938 Q129.7656,44.4063 129.6563,43.8906 Q129.6094,43.5313 129.4219,43.3438 Q129.0938,42.9688 128.4844,42.75 Q127.875,42.5313 127.25,42.5313 Q126.4844,42.5313 125.8516,42.8594 Q125.2188,43.1875 124.7266,43.9375 Q124.2344,44.6875 124.2344,45.7188 L124.2344,46.8125 Q124.2344,48.0469 125.125,48.8672 Q126.0156,49.6875 127.6094,49.6875 Q128.5469,49.6875 129.2031,49.4375 Q129.5938,49.2813 130.0156,48.8438 Q130.2813,48.5781 130.4297,48.5 Q130.5781,48.4219 130.7813,48.4219 Q131.1094,48.4219 131.3672,48.6797 Q131.625,48.9375 131.625,49.2813 Q131.625,49.625 131.2813,50.0313 Q130.7813,50.6094 129.9844,50.9375 Q128.9063,51.3906 127.6094,51.3906 Q126.0938,51.3906 124.8906,50.7656 Q123.9063,50.2656 123.2188,49.1953 Q122.5313,48.125 122.5313,46.8438 L122.5313,45.6875 Q122.5313,44.3594 123.1484,43.2109 Q123.7656,42.0625 124.8594,41.4453 Q125.9531,40.8281 127.1875,40.8281 Q127.9219,40.8281 128.5703,40.9922 Q129.2188,41.1563 129.7656,41.5156 Z " fill="#000000"/><text fill="#000000" font-family="sans-serif" font-size="12" lengthAdjust="spacing" textLength="27" x="147.5" y="50.5508">User</text><line style="stroke:#A80036;stroke-width:1.5;" x1="57.25" x2="232.25" y1="61.6406" y2="61.6406"/><text fill="#000000" font-family="sans-serif" font-size="11" lengthAdjust="spacing" textLength="47" x="62.25" y="77.0596">id: Integer</text><text fill="#000000" font-family="sans-serif" font-size="11" lengthAdjust="spacing" textLength="58" x="62.25" y="90.8955">email: String</text><text fill="#000000" font-family="sans-serif" font-size="11" lengthAdjust="spacing" textLength="84" x="62.25" y="104.7314">password: String</text><text fill="#000000" font-family="sans-serif" font-size="11" lengthAdjust="spacing" textLength="107" x="62.25" y="118.5674">password_salt: String</text><text fill="#000000" font-family="sans-serif" font-size="11" lengthAdjust="spacing" textLength="114" x="62.25" y="132.4033">frontend_settings: Json</text><text fill="#000000" font-family="sans-serif" font-size="11" lengthAdjust="spacing" textLength="83" x="62.25" y="146.2393">last_name: String</text><text fill="#000000" font-family="sans-serif" font-size="11" lengthAdjust="spacing" textLength="85" x="62.25" y="160.0752">first_name: String</text><text fill="#000000" font-family="sans-serif" font-size="11" lengthAdjust="spacing" textLength="102" x="62.25" y="173.9111">second_name: String</text><text fill="#000000" font-family="sans-serif" font-size="11" lengthAdjust="spacing" textLength="76" x="62.25" y="187.7471">date_birth: Date</text><line style="stroke:#A80036;stroke-width:1.5;" x1="57.25" x2="232.25" y1="194.1641" y2="194.1641"/><text fill="#000000" font-family="sans-serif" font-size="11" lengthAdjust="spacing" textLength="111" x="62.25" y="209.583">get_full_name() : string</text><text fill="#000000" font-family="sans-serif" font-size="11" lengthAdjust="spacing" textLength="165" x="62.25" y="223.4189">send_email(Mail mail_object) : void</text><!--MD5=[95db05b050baef27771ec21d480edb9f]
reverse link User to UserRole--><path codeLine="32" d="M104.33,242.2106 C98.19,259.1806 92.24,275.6006 87.25,289.3706 " fill="none" id="User-backto-UserRole" style="stroke:#A80036;stroke-width:1.0;"/><polygon fill="#A80036" points="108.83,229.7906,103.0244,234.0679,104.7397,241.072,110.5453,236.7947,108.83,229.7906" style="stroke:#A80036;stroke-width:1.0;"/><!--MD5=[4be746e49ad159f61bc3b90ad0a52a1d]
link User to UserPermissions--><path codeLine="33" d="M185.3069,241.055 C185.3069,241.055 198.9189,278.1078 198.9189,278.1078 " fill="none" id="User-UserPermissions" style="stroke:#A80036;stroke-width:1.0;"/><polygon fill="#A80036" points="203.06,289.3706,204.7437,282.3588,198.9189,278.1078,197.2352,285.1196,203.06,289.3706" style="stroke:#A80036;stroke-width:1.0;"/><polygon fill="#A80036" points="181.17,229.7906,179.4836,236.8018,185.3069,241.055,186.9932,234.0439,181.17,229.7906" style="stroke:#A80036;stroke-width:1.0;"/><!--MD5=[2fdf2dcd4903788e0846069672b7e371]
@startuml users

title "Диаграмма классов "Пользователи""

enum UserRole {
    ' Пользовательские роли
    id: Integer
    name: String
}

enum UserPermissions {
    ' Пользовательские разрешения
    id: Integer
    name: String
}

class User{
    ' Пользователь
    id: Integer
    email: String
    password: String
    password_salt: String
    frontend_settings: Json
    last_name: String
    first_name: String
    second_name: String
    date_birth: Date
}
User : get_full_name() : string
User : send_email(Mail mail_object) : void

' Объявление отношений подсистемы
User *- - UserRole
User *- -* UserPermissions

@enduml

@startuml users

title "Диаграмма классов "Пользователи""

enum UserRole {
    id: Integer
    name: String
}

enum UserPermissions {
    id: Integer
    name: String
}

class User{
    id: Integer
    email: String
    password: String
    password_salt: String
    frontend_settings: Json
    last_name: String
    first_name: String
    second_name: String
    date_birth: Date
}
User : get_full_name() : string
User : send_email(Mail mail_object) : void

User *- - UserRole
User *- -* UserPermissions

@enduml

PlantUML version 1.2021.16(Wed Dec 08 20:25:22 MSK 2021)
(GPL source distribution)
Java Runtime: Java(TM) SE Runtime Environment
JVM: Java HotSpot(TM) 64-Bit Server VM
Default Encoding: Cp1251
Language: ru
Country: RU
--></g></svg>