<?xml version="1.0" encoding="UTF-8" standalone="no"?><svg xmlns="http://www.w3.org/2000/svg" xmlns:xlink="http://www.w3.org/1999/xlink" contentScriptType="application/ecmascript" contentStyleType="text/css" height="587px" preserveAspectRatio="none" style="width:606px;height:587px;background:#FFFFFF;" version="1.1" viewBox="0 0 606 587" width="606px" zoomAndPan="magnify"><defs><filter height="300%" id="fbbfby0fp1ui0" width="300%" x="-1" y="-1"><feGaussianBlur result="blurOut" stdDeviation="2.0"/><feColorMatrix in="blurOut" result="blurOut2" type="matrix" values="0 0 0 0 0 0 0 0 0 0 0 0 0 0 0 0 0 0 .4 0"/><feOffset dx="4.0" dy="4.0" in="blurOut2" result="blurOut3"/><feBlend in="SourceGraphic" in2="blurOut3" mode="normal"/></filter></defs><g><text fill="#000000" font-family="sans-serif" font-size="18" lengthAdjust="spacing" textLength="581" x="9" y="30.6855">Диаграма последовательности "Взаимодействия клиента и сервера"</text><line style="stroke:#A80036;stroke-width:1.0;stroke-dasharray:5.0,5.0;" x1="89.25" x2="89.25" y1="126.25" y2="501.7656"/><line style="stroke:#A80036;stroke-width:1.0;stroke-dasharray:5.0,5.0;" x1="167.75" x2="167.75" y1="126.25" y2="501.7656"/><line style="stroke:#A80036;stroke-width:1.0;stroke-dasharray:5.0,5.0;" x1="285.75" x2="285.75" y1="126.25" y2="501.7656"/><line style="stroke:#A80036;stroke-width:1.0;stroke-dasharray:5.0,5.0;" x1="422.75" x2="422.75" y1="126.25" y2="501.7656"/><text fill="#000000" font-family="sans-serif" font-size="14" lengthAdjust="spacing" textLength="29" x="72.25" y="123.1738">User</text><ellipse cx="89.75" cy="51.6406" fill="#FEFECE" filter="url(#fbbfby0fp1ui0)" rx="8" ry="8" style="stroke:#A80036;stroke-width:2.0;"/><path d="M89.75,59.6406 L89.75,86.6406 M76.75,67.6406 L102.75,67.6406 M89.75,86.6406 L76.75,101.6406 M89.75,86.6406 L102.75,101.6406 " fill="none" filter="url(#fbbfby0fp1ui0)" style="stroke:#A80036;stroke-width:2.0;"/><text fill="#000000" font-family="sans-serif" font-size="14" lengthAdjust="spacing" textLength="29" x="72.25" y="515.2988">User</text><ellipse cx="89.75" cy="528.375" fill="#FEFECE" filter="url(#fbbfby0fp1ui0)" rx="8" ry="8" style="stroke:#A80036;stroke-width:2.0;"/><path d="M89.75,536.375 L89.75,563.375 M76.75,544.375 L102.75,544.375 M89.75,563.375 L76.75,578.375 M89.75,563.375 L102.75,578.375 " fill="none" filter="url(#fbbfby0fp1ui0)" style="stroke:#A80036;stroke-width:2.0;"/><rect fill="#FEFECE" filter="url(#fbbfby0fp1ui0)" height="31.6094" style="stroke:#A80036;stroke-width:1.5;" width="66" x="132.75" y="89.6406"/><text fill="#000000" font-family="sans-serif" font-size="14" lengthAdjust="spacing" textLength="52" x="139.75" y="111.1738">JS client</text><rect fill="#FEFECE" filter="url(#fbbfby0fp1ui0)" height="31.6094" style="stroke:#A80036;stroke-width:1.5;" width="66" x="132.75" y="500.7656"/><text fill="#000000" font-family="sans-serif" font-size="14" lengthAdjust="spacing" textLength="52" x="139.75" y="522.2988">JS client</text><rect fill="#FEFECE" filter="url(#fbbfby0fp1ui0)" height="31.6094" style="stroke:#A80036;stroke-width:1.5;" width="143" x="212.75" y="89.6406"/><text fill="#000000" font-family="sans-serif" font-size="14" lengthAdjust="spacing" textLength="129" x="219.75" y="111.1738">Interface component</text><rect fill="#FEFECE" filter="url(#fbbfby0fp1ui0)" height="31.6094" style="stroke:#A80036;stroke-width:1.5;" width="143" x="212.75" y="500.7656"/><text fill="#000000" font-family="sans-serif" font-size="14" lengthAdjust="spacing" textLength="129" x="219.75" y="522.2988">Interface component</text><rect fill="#FEFECE" filter="url(#fbbfby0fp1ui0)" height="31.6094" style="stroke:#A80036;stroke-width:1.5;" width="102" x="369.75" y="89.6406"/><text fill="#000000" font-family="sans-serif" font-size="14" lengthAdjust="spacing" textLength="88" x="376.75" y="111.1738">Python server</text><rect fill="#FEFECE" filter="url(#fbbfby0fp1ui0)" height="31.6094" style="stroke:#A80036;stroke-width:1.5;" width="102" x="369.75" y="500.7656"/><text fill="#000000" font-family="sans-serif" font-size="14" lengthAdjust="spacing" textLength="88" x="376.75" y="522.2988">Python server</text><polygon fill="#A80036" points="155.75,154.6016,165.75,158.6016,155.75,162.6016,159.75,158.6016" style="stroke:#A80036;stroke-width:1.0;"/><line style="stroke:#A80036;stroke-width:1.0;stroke-dasharray:2.0,2.0;" x1="89.75" x2="161.75" y1="158.6016" y2="158.6016"/><text fill="#000000" font-family="sans-serif" font-size="13" lengthAdjust="spacing" textLength="50" x="96.75" y="153.7451">interacts</text><polygon fill="#A80036" points="274.25,184.9531,284.25,188.9531,274.25,192.9531,278.25,188.9531" style="stroke:#A80036;stroke-width:1.0;"/><line style="stroke:#A80036;stroke-width:1.0;stroke-dasharray:2.0,2.0;" x1="167.75" x2="280.25" y1="188.9531" y2="188.9531"/><text fill="#000000" font-family="sans-serif" font-size="13" lengthAdjust="spacing" textLength="75" x="174.75" y="184.0967">change state</text><line style="stroke:#A80036;stroke-width:1.0;stroke-dasharray:2.0,2.0;" x1="286.25" x2="328.25" y1="219.3047" y2="219.3047"/><line style="stroke:#A80036;stroke-width:1.0;stroke-dasharray:2.0,2.0;" x1="328.25" x2="328.25" y1="219.3047" y2="232.3047"/><line style="stroke:#A80036;stroke-width:1.0;stroke-dasharray:2.0,2.0;" x1="287.25" x2="328.25" y1="232.3047" y2="232.3047"/><polygon fill="#A80036" points="297.25,228.3047,287.25,232.3047,297.25,236.3047,293.25,232.3047" style="stroke:#A80036;stroke-width:1.0;"/><text fill="#000000" font-family="sans-serif" font-size="13" lengthAdjust="spacing" textLength="36" x="293.25" y="214.4482">render</text><polygon fill="#A80036" points="410.75,258.6563,420.75,262.6563,410.75,266.6563,414.75,262.6563" style="stroke:#A80036;stroke-width:1.0;"/><line style="stroke:#A80036;stroke-width:1.0;stroke-dasharray:2.0,2.0;" x1="286.25" x2="416.75" y1="262.6563" y2="262.6563"/><text fill="#000000" font-family="sans-serif" font-size="13" lengthAdjust="spacing" textLength="43" x="293.25" y="257.7998">request</text><line style="stroke:#A80036;stroke-width:1.0;stroke-dasharray:2.0,2.0;" x1="422.75" x2="464.75" y1="293.0078" y2="293.0078"/><line style="stroke:#A80036;stroke-width:1.0;stroke-dasharray:2.0,2.0;" x1="464.75" x2="464.75" y1="293.0078" y2="306.0078"/><line style="stroke:#A80036;stroke-width:1.0;stroke-dasharray:2.0,2.0;" x1="423.75" x2="464.75" y1="306.0078" y2="306.0078"/><polygon fill="#A80036" points="433.75,302.0078,423.75,306.0078,433.75,310.0078,429.75,306.0078" style="stroke:#A80036;stroke-width:1.0;"/><text fill="#000000" font-family="sans-serif" font-size="13" lengthAdjust="spacing" textLength="95" x="429.75" y="288.1514">handling request</text><polygon fill="#A80036" points="297.25,332.3594,287.25,336.3594,297.25,340.3594,293.25,336.3594" style="stroke:#A80036;stroke-width:1.0;"/><line style="stroke:#A80036;stroke-width:1.0;stroke-dasharray:2.0,2.0;" x1="291.25" x2="421.75" y1="336.3594" y2="336.3594"/><text fill="#000000" font-family="sans-serif" font-size="13" lengthAdjust="spacing" textLength="53" x="303.25" y="331.5029">response</text><line style="stroke:#A80036;stroke-width:1.0;stroke-dasharray:2.0,2.0;" x1="286.25" x2="328.25" y1="366.7109" y2="366.7109"/><line style="stroke:#A80036;stroke-width:1.0;stroke-dasharray:2.0,2.0;" x1="328.25" x2="328.25" y1="366.7109" y2="379.7109"/><line style="stroke:#A80036;stroke-width:1.0;stroke-dasharray:2.0,2.0;" x1="287.25" x2="328.25" y1="379.7109" y2="379.7109"/><polygon fill="#A80036" points="297.25,375.7109,287.25,379.7109,297.25,383.7109,293.25,379.7109" style="stroke:#A80036;stroke-width:1.0;"/><text fill="#000000" font-family="sans-serif" font-size="13" lengthAdjust="spacing" textLength="75" x="293.25" y="361.8545">change state</text><line style="stroke:#A80036;stroke-width:1.0;stroke-dasharray:2.0,2.0;" x1="286.25" x2="328.25" y1="410.0625" y2="410.0625"/><line style="stroke:#A80036;stroke-width:1.0;stroke-dasharray:2.0,2.0;" x1="328.25" x2="328.25" y1="410.0625" y2="423.0625"/><line style="stroke:#A80036;stroke-width:1.0;stroke-dasharray:2.0,2.0;" x1="287.25" x2="328.25" y1="423.0625" y2="423.0625"/><polygon fill="#A80036" points="297.25,419.0625,287.25,423.0625,297.25,427.0625,293.25,423.0625" style="stroke:#A80036;stroke-width:1.0;"/><text fill="#000000" font-family="sans-serif" font-size="13" lengthAdjust="spacing" textLength="36" x="293.25" y="405.2061">render</text><polygon fill="#A80036" points="178.75,449.4141,168.75,453.4141,178.75,457.4141,174.75,453.4141" style="stroke:#A80036;stroke-width:1.0;"/><line style="stroke:#A80036;stroke-width:1.0;stroke-dasharray:2.0,2.0;" x1="172.75" x2="285.25" y1="453.4141" y2="453.4141"/><text fill="#000000" font-family="sans-serif" font-size="13" lengthAdjust="spacing" textLength="77" x="184.75" y="448.5576">display result</text><polygon fill="#A80036" points="100.75,479.7656,90.75,483.7656,100.75,487.7656,96.75,483.7656" style="stroke:#A80036;stroke-width:1.0;"/><line style="stroke:#A80036;stroke-width:1.0;stroke-dasharray:2.0,2.0;" x1="94.75" x2="166.75" y1="483.7656" y2="483.7656"/><text fill="#000000" font-family="sans-serif" font-size="13" lengthAdjust="spacing" textLength="54" x="106.75" y="478.9092">get result</text><!--MD5=[33bb40015fb24ab0209b93fc6cd868d0]
@startuml

title "Диаграма последовательности "Взаимодействия клиента и сервера""


actor User as "User"
participant JSClient as "JS client"
participant InterfaceComponent as "Interface component"
participant DjangoServer as "Python server"

User - -> JSClient : interacts
JSClient - -> InterfaceComponent : change state
InterfaceComponent - -> InterfaceComponent : render
InterfaceComponent - -> DjangoServer : request
DjangoServer - -> DjangoServer : handling request
DjangoServer - -> InterfaceComponent : response
InterfaceComponent - -> InterfaceComponent : change state
InterfaceComponent - -> InterfaceComponent : render
InterfaceComponent - -> JSClient : display result
JSClient - -> User : get result

@enduml

PlantUML version 1.2021.16(Wed Dec 08 20:25:22 MSK 2021)
(GPL source distribution)
Java Runtime: Java(TM) SE Runtime Environment
JVM: Java HotSpot(TM) 64-Bit Server VM
Default Encoding: Cp1251
Language: ru
Country: RU
--></g></svg>